<svg xmlns="http://www.w3.org/2000/svg" version="1.1" xmlns:xlink="http://www.w3.org/1999/xlink" xmlns:svgjs="http://svgjs.dev/svgjs" width="1000" height="1000" viewBox="0 0 1000 1000"><rect width="1000" height="1000" fill="#7c4e29"></rect><g transform="matrix(0.7,0,0,0.7,150,150)"><svg viewBox="0 0 280 280" data-background-color="#7c4e29" preserveAspectRatio="xMidYMid meet" height="1000" width="1000" xmlns="http://www.w3.org/2000/svg" xmlns:xlink="http://www.w3.org/1999/xlink"><g id="tight-bounds" transform="matrix(1,0,0,1,0,0)"><svg viewBox="0 0 280 280" height="280" width="280"><g><svg viewBox="0 0 280 280" height="280" width="280"><g><svg viewBox="0 0 280 280" height="280" width="280"><g id="textblocktransform"><svg viewBox="0 0 280 280" height="280" width="280" id="textblock"><g><svg viewBox="0 0 280 280" height="280" width="280"><g transform="matrix(1,0,0,1,74.00336708925556,74.00336708925556)"><svg viewBox="0 0 131.99326582148888 131.99326582148888" height="131.99326582148888" width="131.99326582148888"><g><circle r="66" cx="65.99663291074444" cy="65.99663291074444" fill="#ffffff" data-fill-palette-color="accent"></circle></g></svg></g><g><path d="M11.331 97.805l-0.977-0.312c-0.269-0.042-0.542-0.028-0.819 0.044-0.274 0.065-0.531 0.186-0.768 0.364-0.236 0.171-0.448 0.383-0.638 0.634-0.189 0.252-0.333 0.532-0.431 0.842v0c-0.09 0.283-0.144 0.556-0.163 0.818-0.018 0.262 0.006 0.506 0.072 0.73 0.062 0.215 0.175 0.407 0.339 0.575 0.155 0.173 0.364 0.301 0.627 0.385v0c0.336 0.107 0.622 0.118 0.859 0.035 0.244-0.082 0.464-0.215 0.66-0.399 0.198-0.191 0.377-0.409 0.536-0.656 0.167-0.251 0.334-0.492 0.501-0.721v0l1.987-2.717c0.286-0.373 0.617-0.706 0.992-0.999 0.374-0.287 0.792-0.505 1.253-0.656 0.455-0.152 0.946-0.228 1.475-0.226 0.531-0.005 1.092 0.087 1.685 0.276v0c0.816 0.26 1.512 0.649 2.087 1.166 0.577 0.51 1.02 1.112 1.328 1.804 0.308 0.693 0.474 1.46 0.496 2.301 0.031 0.836-0.1 1.712-0.392 2.626v0c-0.206 0.645-0.472 1.231-0.799 1.758-0.327 0.526-0.701 0.984-1.122 1.371-0.425 0.379-0.886 0.686-1.381 0.92-0.495 0.234-1.014 0.373-1.558 0.417v0l-0.365 1.145-3.327-1.06 1.278-4.009 0.681 0.217c0.336 0.107 0.66 0.149 0.972 0.125 0.317-0.015 0.61-0.095 0.881-0.241 0.28-0.15 0.527-0.369 0.742-0.655 0.223-0.291 0.404-0.654 0.543-1.089v0c0.212-0.665 0.219-1.221 0.02-1.668-0.194-0.439-0.567-0.746-1.12-0.923v0c-0.276-0.088-0.529-0.103-0.757-0.045-0.224 0.066-0.432 0.174-0.625 0.322-0.192 0.149-0.369 0.328-0.53 0.538-0.168 0.208-0.324 0.415-0.471 0.623v0l-1.628 2.276c-0.298 0.434-0.652 0.829-1.062 1.184-0.406 0.364-0.865 0.656-1.378 0.877-0.504 0.216-1.058 0.341-1.663 0.372-0.596 0.028-1.236-0.068-1.921-0.286v0c-0.803-0.256-1.468-0.627-1.994-1.114-0.531-0.495-0.925-1.078-1.183-1.747-0.258-0.669-0.382-1.405-0.374-2.207 0.009-0.802 0.153-1.641 0.432-2.516v0c0.218-0.685 0.5-1.294 0.845-1.83 0.343-0.529 0.722-0.981 1.139-1.356 0.41-0.377 0.838-0.672 1.282-0.885 0.452-0.211 0.889-0.344 1.313-0.398v0l0.352-1.105 3.347 1.066z" fill="#ffffff" data-fill-palette-color="primary"></path><path d="M14.3 75.516l3.309 1.535 5.857 12.392 2.093-4.512-2.482-1.151 1.592-3.431 5.611 2.603-5.633 12.145-3.3-1.53-5.949-12.218-2.002 4.314 2.529 1.173-1.596 3.441-5.659-2.625z" fill="#ffffff" data-fill-palette-color="primary"></path><path d="M19.714 72.412l-2.725-1.641 3.891-6.462 2.726 1.641-0.957 1.589 9.649 5.81 0.957-1.588 2.725 1.641-3.892 6.462-2.725-1.641 0.941-1.562-9.649-5.811z" fill="#ffffff" data-fill-palette-color="primary"></path><path d="M26.415 62.023l-2.532-1.943 4.592-5.985 2.532 1.943-1.129 1.472 8.928 6.851 2.334-3.042c0.059-0.077 0.095-0.175 0.109-0.295 0.015-0.11 0.005-0.222-0.03-0.336-0.025-0.115-0.067-0.225-0.124-0.331-0.062-0.1-0.132-0.18-0.209-0.239v0l-1.875-1.438 2.297-2.992 5.138 3.942-8.58 11.18-2.523-1.936 1.11-1.447-8.928-6.851z" fill="#ffffff" data-fill-palette-color="primary"></path><path d="M44.561 41.339l-2.219-2.294 5.423-5.244 2.219 2.295-1.125 1.087 6.644 13.654-3.426 3.314-13.319-7.2-1.222 1.181-2.218-2.294 5.437-5.259 2.219 2.295-1.356 1.311 9.156 5.056-4.753-9.313z" fill="#ffffff" data-fill-palette-color="primary"></path><path d="M53.488 33.24l-1.936-2.524 5.986-4.59 1.936 2.524-1.472 1.129 6.855 8.938 1.471-1.129 1.936 2.524-5.986 4.591-1.936-2.524 1.447-1.11-6.854-8.938z" fill="#ffffff" data-fill-palette-color="primary"></path><path d="M78.738 33.838l-1.612-2.742 1.518-0.893-1.974-1.784-4.672 2.747 0.608 2.588 1.608-0.946 1.612 2.743-5.77 3.392-1.613-2.742 1.135-0.667-3.177-14.889 4.019-2.363 11.368 10.072 1.099-0.646 1.612 2.743zM69.903 22.288l1.382 5.847 3.064-1.801z" fill="#ffffff" data-fill-palette-color="primary"></path><path d="M90.361 15.322l-0.396-0.947c-0.142-0.233-0.33-0.431-0.563-0.595-0.227-0.167-0.485-0.284-0.775-0.35-0.283-0.069-0.582-0.094-0.896-0.075-0.314 0.019-0.621 0.091-0.921 0.217v0c-0.274 0.115-0.517 0.25-0.728 0.405-0.212 0.156-0.382 0.332-0.51 0.528-0.124 0.187-0.197 0.397-0.219 0.631-0.031 0.23 0.007 0.473 0.113 0.727v0c0.136 0.325 0.313 0.551 0.53 0.677 0.22 0.133 0.464 0.214 0.731 0.245 0.274 0.028 0.556 0.022 0.847-0.017 0.3-0.035 0.591-0.064 0.874-0.085v0l3.356-0.246c0.469-0.024 0.937 0.012 1.405 0.109 0.461 0.099 0.898 0.276 1.311 0.53 0.411 0.248 0.786 0.574 1.127 0.978 0.347 0.401 0.641 0.889 0.881 1.462v0c0.33 0.79 0.485 1.572 0.464 2.345-0.015 0.77-0.187 1.497-0.515 2.181-0.328 0.684-0.805 1.306-1.432 1.867-0.617 0.565-1.369 1.033-2.255 1.403v0c-0.625 0.261-1.243 0.437-1.857 0.529-0.613 0.092-1.204 0.103-1.772 0.033-0.564-0.079-1.096-0.231-1.594-0.456-0.499-0.226-0.941-0.531-1.327-0.917v0l-1.109 0.464-1.347-3.222 3.882-1.623 0.276 0.66c0.136 0.325 0.314 0.599 0.534 0.821 0.217 0.231 0.468 0.403 0.754 0.516 0.296 0.116 0.622 0.163 0.98 0.141 0.367-0.018 0.76-0.116 1.181-0.292v0c0.644-0.269 1.072-0.624 1.285-1.065 0.209-0.432 0.201-0.915-0.023-1.45v0c-0.112-0.268-0.264-0.47-0.456-0.607-0.196-0.128-0.413-0.217-0.65-0.267-0.238-0.05-0.489-0.069-0.754-0.056-0.267 0.007-0.526 0.022-0.778 0.045v0l-2.789 0.233c-0.524 0.054-1.054 0.04-1.59-0.043-0.54-0.074-1.06-0.234-1.561-0.482-0.491-0.244-0.945-0.586-1.361-1.026-0.407-0.436-0.749-0.986-1.026-1.648v0c-0.325-0.778-0.473-1.525-0.442-2.241 0.034-0.725 0.222-1.403 0.565-2.034 0.343-0.63 0.823-1.201 1.44-1.713 0.617-0.512 1.349-0.946 2.197-1.301v0c0.663-0.277 1.31-0.458 1.941-0.541 0.625-0.081 1.215-0.085 1.77-0.01 0.553 0.068 1.055 0.203 1.505 0.404 0.454 0.207 0.838 0.455 1.153 0.742v0l1.071-0.448 1.355 3.241z" fill="#ffffff" data-fill-palette-color="primary"></path><path d="M109.27 3.152l0.972 3.515-5.651 12.487 4.793-1.326-0.729-2.637 3.645-1.008 1.65 5.962-12.903 3.57-0.97-3.506 5.459-12.444-4.584 1.268 0.743 2.687-3.655 1.011-1.664-6.012z" fill="#ffffff" data-fill-palette-color="primary"></path><path d="M115.399 5.598l-0.481-3.48 13.889-1.918 0.822 5.954-3.757 0.518-0.342-2.473-4.475 0.618 0.475 3.438 3.469-0.479 0.463 3.347-3.47 0.479 0.559 4.044 4.475-0.618-0.428-3.1 3.757-0.519 0.863 6.251-13.888 1.919-0.435-3.152 1.827-0.252-1.496-10.829z" fill="#ffffff" data-fill-palette-color="primary"></path><path d="M134.443 3.192l0.007-3.192 8.134 0.018c0.912 0.002 1.747 0.145 2.507 0.43 0.759 0.285 1.411 0.666 1.956 1.145 0.552 0.485 0.982 1.042 1.291 1.671 0.309 0.629 0.463 1.282 0.462 1.959v0c-0.002 0.822-0.128 1.592-0.378 2.31-0.243 0.718-0.621 1.339-1.133 1.863-0.512 0.531-1.159 0.947-1.941 1.249-0.788 0.302-1.718 0.452-2.788 0.45v0l-2.446-0.005-0.007 3.367 1.616 0.004-0.007 3.181-7.305-0.016 0.007-3.181 1.824 0.004 0.025-11.253zM141.717 3.208l-1.585-0.004-0.011 4.736 1.586 0.003c0.884 0.002 1.586-0.183 2.104-0.555 0.526-0.372 0.79-0.958 0.792-1.76v0c0.002-0.753-0.242-1.344-0.732-1.773-0.49-0.429-1.207-0.645-2.154-0.647z" fill="#ffffff" data-fill-palette-color="primary"></path><path d="M161.853 7.711l0.142-1.016c-0.004-0.273-0.064-0.539-0.181-0.799-0.11-0.26-0.273-0.492-0.489-0.697-0.209-0.204-0.453-0.377-0.733-0.52-0.28-0.144-0.581-0.238-0.902-0.284v0c-0.294-0.041-0.572-0.049-0.834-0.022-0.262 0.026-0.497 0.091-0.707 0.194-0.202 0.097-0.372 0.241-0.51 0.431-0.144 0.182-0.235 0.41-0.274 0.684v0c-0.049 0.349-0.012 0.633 0.111 0.852 0.122 0.226 0.29 0.421 0.505 0.583 0.221 0.163 0.467 0.302 0.737 0.417 0.276 0.122 0.541 0.247 0.795 0.373v0l3.013 1.499c0.416 0.219 0.8 0.489 1.153 0.81 0.346 0.32 0.632 0.695 0.857 1.124 0.227 0.422 0.384 0.894 0.472 1.416 0.094 0.522 0.098 1.091 0.012 1.707v0c-0.119 0.848-0.384 1.599-0.796 2.254-0.405 0.655-0.924 1.193-1.554 1.613-0.631 0.421-1.359 0.713-2.184 0.877-0.819 0.171-1.704 0.191-2.655 0.058v0c-0.67-0.094-1.293-0.258-1.867-0.491-0.574-0.234-1.088-0.525-1.542-0.875-0.446-0.355-0.825-0.757-1.139-1.206-0.314-0.448-0.539-0.937-0.674-1.465v0l-1.19-0.166 0.483-3.458 4.167 0.582-0.099 0.708c-0.049 0.349-0.035 0.675 0.041 0.979 0.068 0.309 0.197 0.586 0.386 0.828 0.195 0.25 0.452 0.457 0.771 0.621 0.325 0.171 0.713 0.288 1.165 0.351v0c0.691 0.097 1.24 0.01 1.648-0.261 0.4-0.265 0.64-0.685 0.72-1.26v0c0.04-0.287 0.013-0.539-0.083-0.754-0.103-0.21-0.244-0.397-0.424-0.562-0.179-0.165-0.386-0.309-0.619-0.432-0.233-0.13-0.464-0.25-0.693-0.358v0l-2.518-1.221c-0.478-0.22-0.927-0.503-1.347-0.847-0.427-0.339-0.793-0.742-1.097-1.21-0.298-0.46-0.514-0.986-0.648-1.577-0.128-0.583-0.142-1.23-0.042-1.941v0c0.117-0.835 0.371-1.553 0.762-2.154 0.399-0.607 0.906-1.094 1.522-1.461 0.616-0.367 1.32-0.614 2.113-0.74 0.792-0.126 1.643-0.126 2.552 0.001v0c0.712 0.1 1.36 0.274 1.947 0.523 0.579 0.248 1.088 0.546 1.528 0.894 0.441 0.341 0.804 0.712 1.089 1.115 0.285 0.409 0.489 0.818 0.613 1.226v0l1.15 0.161-0.487 3.479z" fill="#ffffff" data-fill-palette-color="primary"></path><path d="M171.07 6.925l0.927-3.388 13.523 3.701-1.587 5.797-3.658-1.001 0.66-2.409-4.358-1.193-0.916 3.349 3.378 0.924-0.892 3.258-3.378-0.924-1.078 3.938 4.358 1.192 0.826-3.018 3.658 1.001-1.666 6.087-13.523-3.701 0.84-3.069 1.779 0.487 2.886-10.544z" fill="#ffffff" data-fill-palette-color="primary"></path><path d="M198.626 32.027l-3.184-1.408 1.224-2.767c-0.78 0.584-1.461 0.963-2.044 1.136-0.576 0.176-1.175 0.258-1.797 0.248-0.628-0.014-1.382-0.222-2.261-0.626v0c-0.439-0.202-0.859-0.448-1.26-0.739-0.394-0.288-0.759-0.607-1.094-0.959-0.332-0.358-0.643-0.749-0.932-1.171-0.286-0.413-0.515-0.851-0.689-1.313v0c-0.438-1.145-0.644-2.336-0.619-3.571 0.028-1.242 0.314-2.478 0.859-3.71v0c0.335-0.758 0.751-1.451 1.247-2.078 0.496-0.627 1.048-1.175 1.657-1.646 0.609-0.471 1.262-0.855 1.959-1.151 0.691-0.299 1.407-0.5 2.147-0.602 0.737-0.112 1.484-0.118 2.24-0.018 0.75 0.097 1.491 0.308 2.224 0.632v0c0.834 0.369 1.512 0.801 2.034 1.295 0.515 0.492 0.994 1.202 1.437 2.131v0l2.378 1.052-1.588 3.592-3.288-1.454c-0.099-0.648-0.243-1.15-0.434-1.506-0.187-0.347-0.417-0.672-0.691-0.974-0.268-0.3-0.702-0.582-1.302-0.847v0c-0.6-0.265-1.213-0.374-1.838-0.326-0.632 0.045-1.235 0.213-1.809 0.503-0.574 0.29-1.107 0.7-1.598 1.231-0.482 0.527-0.867 1.116-1.155 1.766v0c-0.285 0.644-0.461 1.299-0.529 1.965-0.067 0.665-0.009 1.318 0.177 1.958 0.188 0.634 0.485 1.193 0.891 1.675 0.403 0.473 0.901 0.84 1.495 1.103v0c0.752 0.332 1.504 0.4 2.255 0.204 0.755-0.187 1.423-0.606 2.005-1.255v0l-3.07-1.358 1.29-2.919 7.468 3.302z" fill="#ffffff" data-fill-palette-color="primary"></path><path d="M215.339 28.713l0.549-0.867c0.109-0.25 0.164-0.517 0.165-0.803 0.007-0.282-0.046-0.56-0.157-0.835-0.106-0.272-0.257-0.531-0.453-0.777-0.196-0.246-0.43-0.457-0.704-0.631v0c-0.251-0.159-0.501-0.281-0.751-0.364-0.249-0.084-0.491-0.123-0.724-0.116-0.224 0.005-0.438 0.066-0.643 0.182-0.206 0.106-0.384 0.276-0.531 0.51v0c-0.189 0.298-0.272 0.572-0.251 0.822 0.018 0.256 0.09 0.503 0.219 0.74 0.134 0.24 0.3 0.468 0.499 0.684 0.201 0.225 0.391 0.448 0.57 0.668v0l2.126 2.609c0.289 0.371 0.527 0.775 0.715 1.213 0.183 0.435 0.288 0.894 0.317 1.379 0.032 0.478-0.019 0.973-0.155 1.484-0.13 0.515-0.361 1.035-0.693 1.56v0c-0.458 0.724-1.01 1.298-1.656 1.723-0.64 0.429-1.334 0.705-2.082 0.828-0.748 0.123-1.532 0.089-2.351-0.103-0.817-0.182-1.631-0.53-2.442-1.044v0c-0.572-0.362-1.071-0.768-1.498-1.218-0.426-0.45-0.774-0.928-1.042-1.433-0.259-0.508-0.439-1.03-0.54-1.568-0.101-0.538-0.104-1.076-0.009-1.613v0l-1.016-0.643 1.868-2.95 3.555 2.251-0.383 0.604c-0.189 0.298-0.311 0.6-0.367 0.908-0.066 0.31-0.062 0.615 0.01 0.914 0.074 0.309 0.223 0.603 0.446 0.884 0.225 0.29 0.531 0.557 0.916 0.8v0c0.589 0.373 1.126 0.521 1.609 0.443 0.473-0.076 0.865-0.36 1.176-0.85v0c0.155-0.245 0.234-0.486 0.236-0.721-0.007-0.234-0.059-0.462-0.154-0.687-0.095-0.224-0.224-0.44-0.386-0.649-0.158-0.215-0.319-0.419-0.483-0.612v0l-1.79-2.152c-0.345-0.398-0.637-0.841-0.876-1.328-0.249-0.485-0.415-1.003-0.5-1.555-0.082-0.542-0.062-1.11 0.061-1.703 0.124-0.584 0.379-1.179 0.763-1.786v0c0.451-0.712 0.978-1.261 1.583-1.647 0.614-0.388 1.277-0.622 1.99-0.702 0.713-0.08 1.456-0.014 2.229 0.198 0.773 0.212 1.548 0.564 2.325 1.055v0c0.607 0.384 1.126 0.811 1.557 1.28 0.425 0.465 0.766 0.947 1.022 1.445 0.261 0.492 0.438 0.981 0.532 1.465 0.09 0.49 0.108 0.947 0.052 1.37v0l0.981 0.621-1.88 2.968z" fill="#ffffff" data-fill-palette-color="primary"></path><path d="M217.316 44.591l2.051-2.432 1.394 1.175 7.327-8.69-1.64-1.383-1.469 1.743-2.9-2.445 3.454-4.095 12.263 10.339-3.453 4.096-2.915-2.458 1.469-1.743-1.862-1.57-7.327 8.691 1.426 1.202-2.05 2.432z" fill="#ffffff" data-fill-palette-color="primary"></path><path d="M238.684 44.196l2.389-2.115 4.692 5.298-2.39 2.116-1.071-1.21-5.477 4.85c-0.502 0.444-0.878 0.874-1.128 1.289-0.246 0.421-0.388 0.833-0.428 1.237-0.044 0.399 0.009 0.781 0.158 1.147 0.144 0.371 0.362 0.722 0.655 1.053v0c0.302 0.341 0.621 0.613 0.957 0.814 0.34 0.207 0.703 0.314 1.088 0.323 0.391 0.014 0.81-0.08 1.258-0.283 0.453-0.207 0.946-0.547 1.479-1.019v0l5.477-4.849-1.243-1.404 2.389-2.116 4.685 5.291-2.39 2.115-0.934-1.055-5.136 4.548c-0.931 0.824-1.875 1.425-2.832 1.802-0.957 0.368-1.892 0.541-2.807 0.52-0.909-0.026-1.774-0.237-2.597-0.635-0.817-0.402-1.544-0.962-2.18-1.681v0c-0.632-0.714-1.096-1.493-1.392-2.339-0.291-0.85-0.397-1.725-0.318-2.625 0.084-0.895 0.361-1.786 0.83-2.673 0.465-0.892 1.14-1.729 2.025-2.512v0l5.299-4.692z" fill="#ffffff" data-fill-palette-color="primary"></path><path d="M252.722 60.803l2.678-1.737 3.682 5.677c0.44 0.678 0.774 1.384 1.003 2.116 0.228 0.733 0.358 1.472 0.389 2.218 0.027 0.74-0.04 1.475-0.2 2.205-0.161 0.73-0.412 1.428-0.754 2.094-0.348 0.67-0.78 1.292-1.296 1.867-0.523 0.578-1.126 1.089-1.81 1.532v0c-0.684 0.444-1.396 0.786-2.137 1.028-0.741 0.242-1.485 0.383-2.233 0.423-0.754 0.044-1.499-0.007-2.237-0.154-0.738-0.147-1.442-0.382-2.112-0.705-0.668-0.332-1.294-0.75-1.876-1.253-0.576-0.507-1.084-1.1-1.524-1.778v0l-3.682-5.677 2.669-1.731 0.767 1.182 9.44-6.125zM256.394 66.462l-0.807-1.243-9.441 6.125 0.807 1.243c0.342 0.527 0.79 0.945 1.344 1.253 0.55 0.302 1.149 0.49 1.798 0.562 0.651 0.064 1.329 0.011 2.034-0.158 0.705-0.169 1.391-0.47 2.057-0.903v0c0.655-0.425 1.203-0.925 1.646-1.5 0.442-0.575 0.764-1.171 0.965-1.787 0.197-0.622 0.265-1.242 0.201-1.86-0.061-0.627-0.263-1.205-0.604-1.732z" fill="#ffffff" data-fill-palette-color="primary"></path><path d="M263.427 78.159l2.851-1.411 3.346 6.76-2.851 1.412-0.823-1.663-10.095 4.997 0.823 1.662-2.851 1.412-3.346-6.761 2.851-1.411 0.809 1.634 10.095-4.997z" fill="#ffffff" data-fill-palette-color="primary"></path><path d="M257.291 101.889v0c-0.264-0.757-0.414-1.513-0.451-2.268-0.033-0.764 0.034-1.508 0.198-2.231 0.162-0.73 0.42-1.427 0.774-2.092 0.351-0.671 0.789-1.292 1.314-1.863 0.519-0.569 1.11-1.075 1.775-1.519 0.665-0.444 1.398-0.806 2.2-1.086v0c0.796-0.278 1.595-0.45 2.398-0.519 0.803-0.068 1.584-0.041 2.345 0.082 0.76 0.123 1.486 0.338 2.178 0.645 0.69 0.301 1.329 0.685 1.917 1.153 0.579 0.464 1.09 1.006 1.533 1.627 0.448 0.612 0.803 1.296 1.068 2.053v0c0.262 0.75 0.409 1.507 0.441 2.271 0.039 0.762-0.023 1.508-0.185 2.238-0.171 0.726-0.432 1.424-0.784 2.095-0.353 0.665-0.788 1.285-1.304 1.86-0.519 0.569-1.113 1.076-1.785 1.523-0.671 0.446-1.404 0.808-2.2 1.085v0c-0.796 0.278-1.592 0.449-2.388 0.515-0.803 0.068-1.584 0.041-2.344-0.082-0.769-0.127-1.498-0.341-2.189-0.641-0.692-0.307-1.328-0.693-1.907-1.156-0.581-0.47-1.097-1.015-1.546-1.634-0.443-0.621-0.796-1.306-1.058-2.056zM260.735 100.687v0c0.221 0.633 0.561 1.169 1.022 1.608 0.458 0.433 0.991 0.755 1.599 0.968 0.604 0.221 1.255 0.327 1.955 0.317 0.699-0.01 1.401-0.138 2.105-0.384v0c0.704-0.246 1.335-0.587 1.893-1.022 0.56-0.429 1.007-0.919 1.343-1.468 0.335-0.549 0.548-1.135 0.637-1.758 0.09-0.624 0.025-1.249-0.193-1.876v0c-0.221-0.633-0.56-1.165-1.019-1.598-0.456-0.426-0.986-0.75-1.59-0.97-0.602-0.214-1.256-0.319-1.964-0.314-0.708 0.005-1.414 0.131-2.118 0.377v0c-0.704 0.246-1.332 0.586-1.883 1.019-0.551 0.434-0.995 0.922-1.333 1.464-0.342 0.551-0.559 1.135-0.651 1.753-0.09 0.624-0.024 1.252 0.197 1.884z" fill="#ffffff" data-fill-palette-color="primary"></path><path d="M22.027 184.365l0.978-0.312c0.244-0.121 0.458-0.291 0.642-0.509 0.186-0.212 0.325-0.459 0.416-0.742 0.093-0.276 0.144-0.572 0.153-0.886 0.009-0.314-0.037-0.626-0.135-0.935v0c-0.09-0.283-0.204-0.537-0.341-0.762-0.137-0.225-0.297-0.409-0.481-0.553-0.175-0.14-0.378-0.231-0.609-0.274-0.227-0.051-0.471-0.035-0.735 0.049v0c-0.336 0.107-0.576 0.263-0.72 0.469-0.151 0.208-0.254 0.443-0.308 0.707-0.052 0.27-0.071 0.552-0.057 0.845 0.009 0.302 0.012 0.594 0.008 0.878v0l-0.047 3.365c-0.017 0.469-0.094 0.933-0.232 1.39-0.139 0.45-0.353 0.87-0.642 1.26-0.283 0.387-0.64 0.733-1.072 1.038-0.43 0.311-0.941 0.561-1.534 0.749v0c-0.816 0.26-1.608 0.346-2.376 0.257-0.766-0.082-1.475-0.317-2.128-0.703-0.652-0.387-1.231-0.916-1.735-1.589-0.509-0.664-0.909-1.454-1.201-2.369v0c-0.206-0.645-0.327-1.277-0.365-1.896-0.038-0.619 0.003-1.208 0.122-1.768 0.128-0.555 0.325-1.072 0.594-1.548 0.268-0.477 0.611-0.891 1.029-1.242v0l-0.365-1.145 3.327-1.061 1.277 4.009-0.681 0.217c-0.336 0.107-0.624 0.26-0.865 0.46-0.249 0.196-0.443 0.431-0.579 0.707-0.141 0.284-0.217 0.606-0.226 0.964-0.014 0.367 0.049 0.767 0.187 1.202v0c0.212 0.665 0.528 1.122 0.949 1.372 0.412 0.246 0.894 0.281 1.447 0.105v0c0.276-0.088 0.491-0.222 0.644-0.402 0.144-0.184 0.252-0.392 0.323-0.624 0.071-0.233 0.111-0.481 0.122-0.746 0.017-0.266 0.024-0.526 0.023-0.78v0l0.011-2.798c-0.008-0.527 0.052-1.053 0.181-1.581 0.121-0.531 0.326-1.036 0.617-1.512 0.286-0.468 0.666-0.89 1.14-1.266 0.47-0.367 1.048-0.66 1.732-0.879v0c0.803-0.256 1.56-0.338 2.271-0.245 0.72 0.097 1.378 0.344 1.977 0.741 0.598 0.397 1.125 0.925 1.581 1.584 0.457 0.659 0.824 1.427 1.104 2.302v0c0.218 0.685 0.342 1.345 0.37 1.981 0.027 0.63-0.022 1.218-0.145 1.764-0.116 0.545-0.294 1.033-0.533 1.464-0.246 0.434-0.526 0.795-0.841 1.084v0l0.353 1.106-3.347 1.066z" fill="#ffffff" data-fill-palette-color="default"></path><path d="M35.35 200.298l-3.309 1.535-13.244-3.532 2.094 4.512 2.481-1.151 1.592 3.431-5.612 2.603-5.634-12.145 3.3-1.53 13.17 3.348-2.002-4.314-2.528 1.173-1.596-3.441 5.659-2.625z" fill="#ffffff" data-fill-palette-color="default"></path><path d="M34.143 204.478l2.725-1.641 3.891 6.462-2.725 1.641-0.957-1.589-9.649 5.811 0.957 1.589-2.725 1.641-3.892-6.462 2.725-1.641 0.941 1.562 9.649-5.811z" fill="#ffffff" data-fill-palette-color="default"></path><path d="M39.76 213.315l2.532-1.943 4.593 5.985-2.532 1.943-1.129-1.472-8.928 6.851 2.334 3.042c0.059 0.077 0.145 0.137 0.257 0.181 0.103 0.043 0.213 0.063 0.332 0.059 0.118 0.006 0.235-0.006 0.352-0.035 0.113-0.034 0.208-0.081 0.285-0.14v0l1.874-1.438 2.296 2.992-5.138 3.943-8.579-11.181 2.524-1.936 1.11 1.447 8.928-6.851z" fill="#ffffff" data-fill-palette-color="default"></path><path d="M56.254 232.146l2.219-2.294 5.423 5.244-2.219 2.294-1.125-1.087-13.423 7.099-3.427-3.313 6.749-13.554-1.222-1.181 2.219-2.294 5.438 5.258-2.219 2.294-1.355-1.311-4.746 9.321 9.148-5.064z" fill="#ffffff" data-fill-palette-color="default"></path><path d="M63.737 238.973l1.936-2.524 5.986 4.591-1.936 2.524-1.472-1.129-6.854 8.938 1.472 1.129-1.936 2.524-5.986-4.59 1.936-2.525 1.447 1.11 6.854-8.938z" fill="#ffffff" data-fill-palette-color="default"></path><path d="M72.632 262.125l1.612-2.742 1.519 0.893 0.599-2.593-4.672-2.747-1.966 1.79 1.608 0.945-1.612 2.742-5.771-3.393 1.613-2.742 1.134 0.667 11.466-10.015 4.02 2.364-3.275 14.831 1.099 0.646-1.613 2.742zM78.43 248.79l-4.438 4.05 3.064 1.802z" fill="#ffffff" data-fill-palette-color="default"></path><path d="M94.691 259.899l0.395-0.946c0.066-0.265 0.075-0.538 0.028-0.82-0.041-0.279-0.139-0.545-0.295-0.797-0.15-0.25-0.342-0.48-0.577-0.69-0.234-0.21-0.501-0.378-0.8-0.503v0c-0.274-0.115-0.541-0.192-0.801-0.234-0.26-0.041-0.504-0.039-0.733 0.008-0.22 0.043-0.421 0.138-0.603 0.287-0.186 0.14-0.332 0.337-0.438 0.592v0c-0.136 0.325-0.172 0.609-0.11 0.852 0.06 0.25 0.173 0.481 0.34 0.693 0.172 0.214 0.375 0.411 0.607 0.59 0.236 0.188 0.461 0.376 0.674 0.563v0l2.533 2.216c0.347 0.317 0.65 0.676 0.909 1.076 0.253 0.398 0.434 0.833 0.544 1.305 0.112 0.466 0.144 0.963 0.096 1.489-0.042 0.529-0.182 1.081-0.422 1.655v0c-0.33 0.79-0.778 1.449-1.343 1.976-0.559 0.53-1.196 0.919-1.913 1.166-0.717 0.247-1.495 0.344-2.335 0.293-0.836-0.042-1.697-0.249-2.583-0.619v0c-0.625-0.261-1.185-0.578-1.681-0.95-0.496-0.372-0.919-0.785-1.268-1.237-0.341-0.457-0.606-0.942-0.796-1.456-0.19-0.514-0.283-1.043-0.279-1.588v0l-1.109-0.464 1.347-3.222 3.881 1.623-0.276 0.66c-0.136 0.325-0.206 0.644-0.209 0.957-0.013 0.317 0.042 0.616 0.164 0.899 0.125 0.292 0.321 0.557 0.588 0.796 0.271 0.248 0.616 0.46 1.037 0.636v0c0.644 0.269 1.197 0.324 1.66 0.166 0.454-0.155 0.793-0.5 1.017-1.035v0c0.112-0.268 0.149-0.518 0.111-0.751-0.047-0.229-0.136-0.446-0.267-0.651-0.132-0.205-0.295-0.396-0.489-0.575-0.192-0.185-0.385-0.359-0.579-0.523v0l-2.126-1.82c-0.407-0.335-0.769-0.722-1.086-1.162-0.327-0.436-0.578-0.919-0.754-1.449-0.172-0.521-0.247-1.084-0.226-1.689 0.025-0.596 0.175-1.226 0.453-1.889v0c0.325-0.778 0.753-1.407 1.284-1.889 0.54-0.486 1.155-0.828 1.844-1.026 0.689-0.198 1.433-0.258 2.231-0.18 0.798 0.079 1.621 0.296 2.469 0.65v0c0.663 0.277 1.246 0.611 1.749 1.001 0.497 0.387 0.914 0.805 1.251 1.253 0.34 0.441 0.596 0.893 0.77 1.355 0.171 0.468 0.265 0.916 0.281 1.342v0l1.071 0.448-1.355 3.241z" fill="#ffffff" data-fill-palette-color="default"></path><path d="M115.457 260.063l-0.972 3.515-11.267 7.806 4.794 1.327 0.73-2.637 3.645 1.009-1.65 5.962-12.903-3.57 0.97-3.506 11.079-7.868-4.584-1.269-0.743 2.687-3.655-1.011 1.663-6.013z" fill="#ffffff" data-fill-palette-color="default"></path><path d="M117.613 263.954l0.48-3.48 13.889 1.918-0.823 5.954-3.757-0.519 0.342-2.474-4.475-0.618-0.475 3.439 3.469 0.479-0.462 3.346-3.469-0.479-0.559 4.044 4.475 0.618 0.428-3.1 3.757 0.519-0.863 6.251-13.888-1.918 0.435-3.151 1.827 0.252 1.496-10.829z" fill="#ffffff" data-fill-palette-color="default"></path><path d="M134.406 265.566l-0.007-3.192 8.134-0.018c0.912-0.002 1.748 0.138 2.509 0.419 0.761 0.282 1.414 0.66 1.961 1.136 0.554 0.482 0.987 1.037 1.298 1.665 0.312 0.628 0.469 1.28 0.471 1.958v0c0.002 0.822-0.121 1.593-0.368 2.311-0.24 0.719-0.615 1.342-1.125 1.868-0.51 0.533-1.155 0.952-1.935 1.258-0.787 0.306-1.716 0.46-2.787 0.462v0l-2.445 0.006 0.007 3.367 1.617-0.003 0.007 3.181-7.305 0.016-0.007-3.181 1.823-0.004-0.024-11.253zM141.68 265.549l-1.585 0.004 0.01 4.735 1.585-0.003c0.884-0.002 1.585-0.19 2.103-0.564 0.524-0.374 0.785-0.962 0.783-1.764v0c-0.002-0.753-0.248-1.343-0.739-1.77-0.491-0.427-1.21-0.64-2.157-0.638z" fill="#ffffff" data-fill-palette-color="default"></path><path d="M160.298 266.75l-0.142-1.016c-0.078-0.261-0.21-0.501-0.394-0.72-0.177-0.219-0.397-0.398-0.66-0.535-0.257-0.139-0.539-0.239-0.848-0.3-0.309-0.061-0.624-0.07-0.945-0.025v0c-0.294 0.041-0.564 0.11-0.808 0.207-0.245 0.097-0.453 0.224-0.627 0.381-0.168 0.149-0.292 0.334-0.372 0.554-0.089 0.215-0.114 0.459-0.076 0.733v0c0.049 0.349 0.162 0.612 0.341 0.789 0.179 0.184 0.394 0.325 0.645 0.423 0.258 0.097 0.532 0.163 0.823 0.199 0.299 0.042 0.588 0.089 0.867 0.14v0l3.308 0.615c0.46 0.096 0.903 0.25 1.331 0.463 0.42 0.213 0.798 0.495 1.133 0.845 0.334 0.344 0.615 0.755 0.842 1.232 0.234 0.476 0.394 1.023 0.48 1.639v0c0.119 0.848 0.069 1.643-0.147 2.385-0.21 0.741-0.561 1.4-1.053 1.978-0.491 0.578-1.111 1.059-1.859 1.443-0.741 0.39-1.587 0.651-2.538 0.783v0c-0.67 0.094-1.314 0.107-1.93 0.04-0.616-0.067-1.19-0.207-1.722-0.418-0.526-0.219-1.001-0.502-1.426-0.847-0.425-0.345-0.775-0.753-1.05-1.224v0l-1.191 0.167-0.483-3.459 4.166-0.582 0.099 0.708c0.049 0.349 0.151 0.659 0.308 0.93 0.151 0.279 0.35 0.509 0.599 0.69 0.256 0.187 0.56 0.316 0.912 0.385 0.359 0.075 0.765 0.081 1.216 0.019v0c0.691-0.097 1.195-0.331 1.513-0.704 0.312-0.364 0.427-0.834 0.347-1.408v0c-0.04-0.287-0.136-0.522-0.286-0.703-0.157-0.173-0.344-0.315-0.562-0.424-0.218-0.109-0.456-0.191-0.714-0.245-0.26-0.061-0.515-0.113-0.765-0.155v0l-2.756-0.483c-0.52-0.081-1.03-0.229-1.527-0.446-0.503-0.209-0.966-0.496-1.387-0.862-0.413-0.361-0.765-0.807-1.056-1.339-0.283-0.525-0.474-1.144-0.573-1.855v0c-0.117-0.835-0.07-1.595 0.142-2.28 0.217-0.693 0.571-1.301 1.063-1.823 0.492-0.522 1.101-0.953 1.828-1.291 0.727-0.339 1.545-0.572 2.456-0.699v0c0.712-0.1 1.383-0.11 2.015-0.031 0.625 0.08 1.197 0.227 1.714 0.44 0.517 0.207 0.968 0.464 1.354 0.774 0.386 0.316 0.695 0.653 0.926 1.011v0l1.149-0.161 0.487 3.479z" fill="#ffffff" data-fill-palette-color="default"></path><path d="M166.799 263.048l-0.928-3.388 13.523-3.701 1.587 5.797-3.658 1.001-0.66-2.409-4.357 1.193 0.916 3.348 3.378-0.924 0.892 3.258-3.378 0.924 1.078 3.938 4.357-1.192-0.826-3.019 3.658-1.001 1.666 6.087-13.522 3.701-0.84-3.068 1.779-0.487-2.886-10.545z" fill="#ffffff" data-fill-palette-color="default"></path><path d="M203.498 264.57l-3.184 1.408-1.224-2.768c-0.092 0.97-0.271 1.728-0.534 2.276-0.258 0.545-0.6 1.043-1.027 1.496-0.433 0.456-1.094 0.873-1.985 1.252v0c-0.445 0.189-0.91 0.334-1.393 0.435-0.478 0.098-0.96 0.152-1.446 0.163-0.489 0.005-0.987-0.028-1.494-0.098-0.498-0.067-0.976-0.192-1.435-0.375v0c-1.142-0.447-2.161-1.095-3.058-1.944-0.9-0.856-1.622-1.9-2.166-3.133v0c-0.335-0.758-0.568-1.532-0.698-2.32-0.13-0.789-0.164-1.567-0.102-2.334 0.061-0.767 0.217-1.508 0.467-2.223 0.244-0.712 0.577-1.377 0.999-1.994 0.413-0.621 0.911-1.177 1.494-1.669 0.577-0.489 1.232-0.896 1.964-1.22v0c0.834-0.369 1.609-0.579 2.327-0.632 0.711-0.05 1.558 0.074 2.543 0.371v0l2.379-1.052 1.588 3.592-3.288 1.454c-0.546-0.363-1.014-0.594-1.406-0.693-0.382-0.095-0.777-0.144-1.185-0.144-0.402-0.004-0.903 0.127-1.503 0.393v0c-0.6 0.265-1.093 0.646-1.479 1.141-0.392 0.498-0.673 1.057-0.845 1.676-0.172 0.62-0.227 1.29-0.164 2.011 0.065 0.711 0.242 1.392 0.529 2.043v0c0.285 0.644 0.651 1.215 1.097 1.713 0.447 0.497 0.969 0.893 1.568 1.187 0.596 0.288 1.208 0.444 1.838 0.468 0.621 0.02 1.228-0.101 1.822-0.364v0c0.752-0.332 1.308-0.843 1.668-1.531 0.37-0.685 0.51-1.46 0.421-2.327v0l-3.07 1.357-1.291-2.919 7.468-3.302z" fill="#ffffff" data-fill-palette-color="default"></path><path d="M209.333 247.381l-0.549-0.866c-0.179-0.205-0.398-0.37-0.655-0.493-0.252-0.127-0.526-0.198-0.823-0.215-0.291-0.02-0.589 0.005-0.896 0.077-0.306 0.071-0.597 0.194-0.871 0.368v0c-0.251 0.159-0.468 0.333-0.65 0.522-0.183 0.189-0.321 0.391-0.414 0.605-0.091 0.205-0.128 0.424-0.111 0.659 0.008 0.232 0.086 0.465 0.234 0.698v0c0.189 0.298 0.401 0.49 0.636 0.579 0.239 0.094 0.493 0.133 0.762 0.118 0.274-0.018 0.552-0.071 0.832-0.158 0.289-0.085 0.572-0.162 0.847-0.231v0l3.268-0.806c0.459-0.102 0.926-0.145 1.403-0.128 0.471 0.021 0.931 0.122 1.381 0.303 0.446 0.175 0.871 0.433 1.276 0.775 0.41 0.337 0.781 0.769 1.113 1.294v0c0.458 0.724 0.742 1.468 0.851 2.233 0.114 0.762 0.067 1.507-0.142 2.236-0.209 0.729-0.575 1.423-1.098 2.082-0.514 0.661-1.176 1.248-1.988 1.761v0c-0.572 0.362-1.152 0.64-1.741 0.833-0.589 0.193-1.169 0.303-1.741 0.33-0.57 0.017-1.119-0.044-1.649-0.182-0.53-0.139-1.017-0.366-1.462-0.682v0l-1.015 0.644-1.869-2.951 3.555-2.251 0.382 0.605c0.189 0.298 0.41 0.538 0.665 0.719 0.252 0.192 0.529 0.319 0.83 0.382 0.311 0.065 0.641 0.056 0.99-0.025 0.358-0.08 0.73-0.242 1.115-0.486v0c0.589-0.373 0.952-0.795 1.088-1.265 0.133-0.461 0.045-0.936-0.266-1.427v0c-0.155-0.245-0.339-0.419-0.551-0.521-0.214-0.093-0.443-0.145-0.686-0.154-0.243-0.01-0.494 0.014-0.752 0.071-0.262 0.051-0.515 0.11-0.761 0.175v0l-2.71 0.698c-0.507 0.141-1.032 0.216-1.574 0.225-0.545 0.018-1.084-0.053-1.62-0.214-0.525-0.158-1.03-0.419-1.514-0.783-0.474-0.362-0.904-0.846-1.288-1.453v0c-0.451-0.712-0.722-1.424-0.812-2.135-0.088-0.721-0.016-1.421 0.216-2.099 0.233-0.679 0.61-1.322 1.132-1.931 0.522-0.609 1.171-1.159 1.948-1.651v0c0.607-0.384 1.215-0.671 1.822-0.86 0.602-0.185 1.183-0.287 1.744-0.306 0.556-0.025 1.074 0.023 1.552 0.145 0.482 0.128 0.902 0.308 1.26 0.539v0l0.981-0.621 1.879 2.968z" fill="#ffffff" data-fill-palette-color="default"></path><path d="M225.082 250.198l-2.051-2.432 1.394-1.175-7.327-8.691-1.639 1.383 1.469 1.742-2.9 2.445-3.453-4.096 12.264-10.339 3.453 4.096-2.915 2.458-1.47-1.743-1.861 1.569 7.327 8.691 1.426-1.202 2.05 2.432z" fill="#ffffff" data-fill-palette-color="default"></path><path d="M226.089 230.231l-2.389-2.116 4.692-5.299 2.389 2.116-1.072 1.21 5.478 4.85c0.502 0.444 0.974 0.765 1.416 0.964 0.447 0.193 0.874 0.285 1.279 0.274 0.401-0.005 0.774-0.103 1.12-0.295 0.351-0.188 0.673-0.447 0.966-0.778v0c0.302-0.341 0.533-0.691 0.692-1.048 0.164-0.362 0.227-0.736 0.189-1.12-0.033-0.389-0.178-0.794-0.433-1.214-0.261-0.425-0.657-0.873-1.19-1.345v0l-5.477-4.849-1.244 1.404-2.389-2.116 4.685-5.291 2.389 2.116-0.934 1.055 5.136 4.547c0.931 0.824 1.642 1.689 2.132 2.594 0.481 0.905 0.766 1.813 0.855 2.723 0.084 0.905-0.021 1.79-0.315 2.655-0.3 0.86-0.768 1.649-1.405 2.368v0c-0.632 0.714-1.349 1.269-2.153 1.665-0.808 0.392-1.664 0.603-2.567 0.633-0.899 0.025-1.817-0.142-2.754-0.501-0.942-0.354-1.855-0.922-2.739-1.705v0l-5.299-4.692z" fill="#ffffff" data-fill-palette-color="default"></path><path d="M238.61 215.621l-2.678-1.737 3.683-5.677c0.44-0.678 0.948-1.271 1.524-1.778 0.576-0.507 1.198-0.927 1.867-1.259 0.665-0.326 1.363-0.565 2.095-0.716 0.732-0.151 1.472-0.206 2.219-0.166 0.754 0.044 1.498 0.185 2.233 0.423 0.741 0.242 1.453 0.584 2.137 1.028v0c0.684 0.444 1.287 0.954 1.81 1.533 0.523 0.578 0.955 1.2 1.297 1.866 0.348 0.67 0.604 1.372 0.77 2.106 0.166 0.734 0.239 1.472 0.218 2.216-0.031 0.746-0.158 1.487-0.381 2.223-0.228 0.733-0.563 1.438-1.002 2.117v0l-3.683 5.676-2.668-1.731 0.767-1.182-9.441-6.125zM242.281 209.961l-0.806 1.244 9.44 6.124 0.807-1.243c0.342-0.527 0.541-1.107 0.596-1.738 0.052-0.625-0.021-1.249-0.219-1.871-0.207-0.62-0.532-1.218-0.974-1.793-0.442-0.575-0.996-1.079-1.662-1.511v0c-0.655-0.425-1.335-0.722-2.041-0.891-0.705-0.169-1.38-0.22-2.025-0.153-0.649 0.073-1.242 0.265-1.781 0.574-0.548 0.312-0.993 0.731-1.335 1.258z" fill="#ffffff" data-fill-palette-color="default"></path><path d="M248.332 199.948l-2.851-1.411 3.346-6.761 2.851 1.412-0.822 1.662 10.094 4.997 0.823-1.663 2.851 1.412-3.346 6.76-2.851-1.411 0.809-1.634-10.095-4.997z" fill="#ffffff" data-fill-palette-color="default"></path><path d="M269.253 187.863v0c-0.264 0.757-0.617 1.442-1.058 2.057-0.45 0.619-0.964 1.16-1.543 1.623-0.581 0.47-1.217 0.856-1.907 1.157-0.692 0.307-1.422 0.521-2.189 0.641-0.76 0.123-1.538 0.151-2.334 0.085-0.797-0.066-1.596-0.239-2.398-0.518v0c-0.796-0.278-1.529-0.64-2.2-1.086-0.671-0.446-1.266-0.954-1.785-1.522-0.519-0.569-0.953-1.189-1.304-1.86-0.353-0.665-0.615-1.363-0.784-2.096-0.165-0.723-0.228-1.466-0.188-2.227 0.03-0.758 0.177-1.515 0.441-2.272v0c0.262-0.75 0.618-1.434 1.067-2.053 0.443-0.621 0.956-1.166 1.537-1.637 0.585-0.462 1.224-0.846 1.917-1.153 0.69-0.301 1.416-0.516 2.179-0.644 0.76-0.123 1.541-0.15 2.344-0.082 0.803 0.068 1.602 0.241 2.398 0.518v0c0.796 0.278 1.526 0.638 2.19 1.083 0.671 0.446 1.266 0.954 1.785 1.522 0.523 0.578 0.961 1.199 1.314 1.864 0.351 0.671 0.609 1.369 0.774 2.091 0.162 0.73 0.227 1.477 0.195 2.241-0.039 0.762-0.189 1.518-0.451 2.268zM265.809 186.662v0c0.221-0.633 0.287-1.264 0.2-1.895-0.09-0.624-0.306-1.208-0.651-1.752-0.335-0.549-0.78-1.037-1.333-1.464-0.553-0.427-1.182-0.764-1.886-1.01v0c-0.704-0.246-1.411-0.371-2.119-0.377-0.706-0.012-1.36 0.092-1.964 0.314-0.604 0.221-1.135 0.548-1.593 0.98-0.458 0.433-0.797 0.962-1.015 1.589v0c-0.221 0.633-0.286 1.261-0.197 1.885 0.092 0.617 0.306 1.2 0.641 1.749 0.338 0.542 0.785 1.031 1.343 1.467 0.558 0.436 1.189 0.777 1.893 1.023v0c0.704 0.246 1.407 0.37 2.108 0.373 0.701 0.003 1.353-0.102 1.955-0.317 0.61-0.219 1.144-0.541 1.599-0.967 0.458-0.433 0.798-0.965 1.019-1.598z" fill="#ffffff" data-fill-palette-color="default"></path><path d="M2.501 142.789c0-3.829 3.104-6.934 6.933-6.933 3.829 0 6.934 3.104 6.934 6.933 0 3.829-3.104 6.934-6.934 6.934-3.829 0-6.934-3.104-6.933-6.934z" fill="#ffffff" data-fill-palette-color="primary"></path><path d="M263.632 142.789c0-3.829 3.104-6.934 6.934-6.933 3.829 0 6.934 3.104 6.933 6.933 0 3.829-3.104 6.934-6.933 6.934-3.829 0-6.934-3.104-6.934-6.934z" fill="#ffffff" data-fill-palette-color="primary"></path></g></svg></g></svg></g></svg></g></svg></g><defs></defs></svg><rect width="280" height="280" fill="none" stroke="none" visibility="hidden"></rect></g></svg></g></svg>