<svg width="0" height="0" class="hidden">
  <symbol fill="#000000" version="1.1" id="eyelash" xmlns="http://www.w3.org/2000/svg" xmlns:xlink="http://www.w3.org/1999/xlink" xml:space="preserve" viewBox="0 0 512 512">
    <g>
      <g>
        <path d="M512,212.432l-29.15-15.724c-14.811,27.456-34.764,45.576-60.821,55.166c-3.536-2.919-7.372-5.986-11.493-9.152
			c22.835-16.604,41.27-41.061,54.984-73.035l-30.438-13.056c-13.461,31.382-31.107,52.919-53.769,65.563
			c-4.633-2.959-9.281-5.785-13.938-8.486c22.278-19.366,39.752-46.451,50.361-78.61l-31.454-10.376
			c-10.446,31.668-28.574,57.021-51.498,72.296c-4.507-2.009-9.014-3.897-13.52-5.658c17.576-19.709,31.151-45.465,39.375-75.337
			l-31.933-8.793c-8.564,31.105-23.655,56.441-43.11,72.785c-4.1-1.004-8.191-1.91-12.267-2.697c2.193-3.14,4.185-6.24,5.933-9.136
			c9.707-16.089,17.178-34.254,20.496-49.837l-32.395-6.899c-5.179,24.315-22.77,53.314-34.397,61.67
			c-0.863-0.011-1.728-0.029-2.589-0.029c-50.154,0-104.092,18.114-155.982,52.382c-38.766,25.602-62.788,51.068-63.791,52.139
			L0,288.927l10.602,11.321c1.004,1.071,25.025,26.538,63.791,52.139c51.89,34.269,105.827,52.382,155.982,52.382
			c50.154,0,104.092-18.113,155.982-52.382c38.766-25.6,62.788-51.067,63.791-52.139l10.602-11.321l-10.602-11.321
			c-0.119-0.127-0.571-0.605-1.319-1.375C475.161,262.817,496.345,241.454,512,212.432z M115.821,338.705
			c-31.255-17.352-55.707-37.521-69.257-49.795c13.549-12.306,38.006-32.516,69.317-49.878
			c-7.936,15.119-12.386,32.041-12.386,49.896C103.495,306.735,107.923,323.616,115.821,338.705z M230.375,323.204
			c-18.931,0-34.277-15.346-34.277-34.277s15.346-34.277,34.277-34.277s34.277,15.346,34.277,34.277
			S249.306,323.204,230.375,323.204z M344.869,338.823c7.936-15.119,12.386-32.041,12.386-49.896
			c0-17.808-4.428-34.689-12.325-49.778c31.251,17.35,55.702,37.517,69.256,49.795C400.637,301.251,376.179,321.461,344.869,338.823
			z"></path>
      </g>
    </g>
  </symbol>
  <symbol xmlns="http://www.w3.org/2000/svg" viewBox="0 0 50 2" id="line">
    <path fill="#63c3ef" d="M0 0h50v2H0z"></path>
  </symbol>
  <symbol id="menu" enable-background="new 0 0 24 24" xmlns="http://www.w3.org/2000/svg" viewBox="0 0 24 24">
    <g>
      <path d="m21.5 24h-19c-1.379 0-2.5-1.122-2.5-2.5v-19c0-1.378 1.121-2.5 2.5-2.5h19c1.379 0 2.5 1.122 2.5 2.5v19c0 1.378-1.121 2.5-2.5 2.5zm-19-23c-.827 0-1.5.673-1.5 1.5v19c0 .827.673 1.5 1.5 1.5h19c.827 0 1.5-.673 1.5-1.5v-19c0-.827-.673-1.5-1.5-1.5z"></path>
    </g>
    <g>
      <path d="m16.5 8h-9c-.276 0-.5-.224-.5-.5s.224-.5.5-.5h9c.276 0 .5.224.5.5s-.224.5-.5.5z"></path>
    </g>
    <g>
      <path d="m16.5 12.5h-9c-.276 0-.5-.224-.5-.5s.224-.5.5-.5h9c.276 0 .5.224.5.5s-.224.5-.5.5z"></path>
    </g>
    <g>
      <path d="m16.5 17h-9c-.276 0-.5-.224-.5-.5s.224-.5.5-.5h9c.276 0 .5.224.5.5s-.224.5-.5.5z"></path>
    </g>
  </symbol>
  <symbol version="1.1" id="quotes" xmlns="http://www.w3.org/2000/svg" xmlns:xlink="http://www.w3.org/1999/xlink" x="0px" y="0px" xml:space="preserve" viewBox="0 0 508.044 508.044">
    <g>
      <g>
        <path d="M0.108,352.536c0,66.794,54.144,120.938,120.937,120.938c66.794,0,120.938-54.144,120.938-120.938
			s-54.144-120.937-120.938-120.937c-13.727,0-26.867,2.393-39.168,6.61C109.093,82.118,230.814-18.543,117.979,64.303
			C-7.138,156.17-0.026,348.84,0.114,352.371C0.114,352.426,0.108,352.475,0.108,352.536z"></path>
        <path d="M266.169,352.536c0,66.794,54.144,120.938,120.938,120.938s120.938-54.144,120.938-120.938S453.9,231.599,387.106,231.599
			c-13.728,0-26.867,2.393-39.168,6.61C375.154,82.118,496.875-18.543,384.04,64.303C258.923,156.17,266.034,348.84,266.175,352.371
			C266.175,352.426,266.169,352.475,266.169,352.536z"></path>
      </g>
    </g>
    <g></g>
    <g></g>
    <g></g>
    <g></g>
    <g></g>
    <g></g>
    <g></g>
    <g></g>
    <g></g>
    <g></g>
    <g></g>
    <g></g>
    <g></g>
    <g></g>
    <g></g>
  </symbol>
  <symbol id="search" xmlns="http://www.w3.org/2000/svg" viewBox="0 0 21.8 23.8">
    <defs></defs>
    <path d="M11,17.9a8.7,8.7,0,0,0,.8,4.8,1,1,0,0,0,1.2.4.8.8,0,0,0,.4-1.2,8.3,8.3,0,0,1-.7-3.8,7.6,7.6,0,0,1,15.2,1.1A7.7,7.7,0,0,1,16.1,25a.8.8,0,0,0-1.2.2.9.9,0,0,0,.2,1.3A10,10,0,0,0,19.6,28a9.3,9.3,0,0,0,6.1-1.7l5.5,6.4a.9.9,0,0,0,.6.3.7.7,0,0,0,.7-.2.9.9,0,0,0,.1-1.2L27,25.2a8.9,8.9,0,0,0,2.6-5.8A9.3,9.3,0,1,0,11,17.9Z" transform="translate(-10.9 -9.3)"></path>
  </symbol>
  <symbol version="1.1" id="settings" xmlns="http://www.w3.org/2000/svg" xmlns:xlink="http://www.w3.org/1999/xlink" x="0px" y="0px" xml:space="preserve" viewBox="0 0 485.656 485.656">
    <g>
      <g>
        <path d="M334.512,312h-200c-2.122,0-4.156,0.844-5.656,2.344l-96,96l11.312,11.312L137.824,328h187.888
			c-1.664,9.496-6.888,24-23.2,24h-88v16h88c31.64,0,40-31.4,40-48C342.512,315.582,338.93,312,334.512,312z"></path>
      </g>
    </g>
    <g>
      <g>
        <path d="M436.168,258.344c-3.124-3.123-8.188-3.123-11.312,0l-72,72l11.312,11.312l65.712-65.712
			c10.828,14.37,8.629,34.68-5.024,46.4L331.2,416H166.512c-2.122,0-4.156,0.844-5.656,2.344l-56,56l11.312,11.312L169.824,432
			h164.688c2.122,0,4.156-0.844,5.656-2.344l96-96C465.96,303.864,449.192,271.368,436.168,258.344z"></path>
      </g>
    </g>
    <g>
      <g>
        <path d="M390.512,112H361.76c-2.193-7.348-5.139-14.45-8.792-21.192l20.344-20.344c3.123-3.124,3.123-8.188,0-11.312
			L339.36,25.208c-3.124-3.123-8.188-3.123-11.312,0l-20.344,20.344c-6.741-3.658-13.843-6.607-21.192-8.8V8c0-4.418-3.582-8-8-8
			h-48c-4.418,0-8,3.582-8,8v28.752c-7.349,2.193-14.451,5.142-21.192,8.8l-20.344-20.344c-3.124-3.123-8.188-3.123-11.312,0
			l-33.952,33.944c-3.123,3.124-3.123,8.188,0,11.312l20.352,20.344c-3.655,6.742-6.604,13.844-8.8,21.192h-28.752
			c-4.418,0-8,3.582-8,8v48c0,4.418,3.582,8,8,8h28.752c2.193,7.348,5.139,14.45,8.792,21.192l-20.344,20.344
			c-3.123,3.124-3.123,8.188,0,11.312l33.952,33.952c3.174,3.001,8.138,3.001,11.312,0l20.344-20.352
			c6.742,3.655,13.844,6.604,21.192,8.8V280c0,4.418,3.582,8,8,8h48c4.418,0,8-3.582,8-8v-28.752
			c7.348-2.194,14.449-5.14,21.192-8.792l20.344,20.344c1.5,1.5,3.534,2.344,5.656,2.344s4.156-0.844,5.656-2.344l33.944-33.952
			c3.123-3.124,3.123-8.188,0-11.312l-20.344-20.344c3.655-6.742,6.604-13.844,8.8-21.192h28.752c4.418,0,8-3.582,8-8v-48
			C398.512,115.582,394.93,112,390.512,112z M382.513,160h-26.888c-3.709,0.001-6.931,2.551-7.784,6.16
			c-2.366,9.945-6.309,19.447-11.68,28.144c-1.95,3.157-1.473,7.241,1.152,9.864l19.032,19.024l-22.64,22.64l-19.024-19.04
			c-2.623-2.625-6.707-3.102-9.864-1.152c-8.695,5.378-18.197,9.325-28.144,11.688c-3.609,0.853-6.159,4.075-6.16,7.784V272h-32
			v-26.88c-0.001-3.709-2.551-6.931-6.16-7.784c-9.947-2.363-19.449-6.31-28.144-11.688c-3.157-1.95-7.241-1.473-9.864,1.152
			l-19.024,19.04l-22.64-22.64l19.032-19.04c2.625-2.623,3.102-6.707,1.152-9.864c-5.371-8.698-9.314-18.199-11.68-28.144
			c-0.853-3.609-4.075-6.159-7.784-6.16h-26.888v-32H153.4c3.709-0.001,6.931-2.551,7.784-6.16
			c2.366-9.945,6.309-19.446,11.68-28.144c1.95-3.157,1.473-7.241-1.152-9.864L152.68,64.8l22.632-22.624l19.032,19.032
			c2.623,2.625,6.707,3.102,9.864,1.152c8.693-5.379,18.196-9.323,28.144-11.68c3.609-0.853,6.159-4.075,6.16-7.784V16h32v26.896
			c0.002,3.711,2.555,6.934,6.168,7.784c9.948,2.357,19.451,6.301,28.144,11.68c3.157,1.95,7.241,1.473,9.864-1.152l19.024-19.032
			L356.345,64.8l-19.032,19.032c-2.625,2.623-3.102,6.707-1.152,9.864c5.371,8.698,9.314,18.199,11.68,28.144
			c0.853,3.609,4.075,6.159,7.784,6.16h26.888V160z"></path>
      </g>
    </g>
    <g>
      <g>
        <path d="M254.512,96c-26.51,0-48,21.49-48,48s21.491,48,48,48c26.499-0.026,47.974-21.501,48-48
			C302.512,117.49,281.022,96,254.512,96z M254.512,176c-17.673,0-32-14.327-32-32c0-17.673,14.327-32,32-32
			c17.673,0,32,14.327,32,32C286.512,161.673,272.185,176,254.512,176z"></path>
      </g>
    </g>
    <g></g>
    <g></g>
    <g></g>
    <g></g>
    <g></g>
    <g></g>
    <g></g>
    <g></g>
    <g></g>
    <g></g>
    <g></g>
    <g></g>
    <g></g>
    <g></g>
    <g></g>
  </symbol>
  <symbol version="1.1" id="clock" xmlns="http://www.w3.org/2000/svg" xmlns:xlink="http://www.w3.org/1999/xlink" x="0px" y="0px" xml:space="preserve" viewBox="0 0 501.656 501.656">
    <g>
      <g>
        <path d="M342.512,328h-200c-2.122,0-4.156,0.844-5.656,2.344l-96,96l11.312,11.312L145.824,344h187.888
			c-1.664,9.496-6.888,24-23.2,24h-88v16h88c31.64,0,40-31.4,40-48C350.512,331.582,346.93,328,342.512,328z"></path>
      </g>
    </g>
    <g>
      <g>
        <path d="M444.168,274.344c-3.124-3.123-8.188-3.123-11.312,0l-72,72l11.312,11.312l65.712-65.712
			c10.828,14.37,8.629,34.68-5.024,46.4L339.2,432H174.512c-2.122,0-4.156,0.844-5.656,2.344l-56,56l11.312,11.312L177.824,448
			h164.688c2.122,0,4.156-0.844,5.656-2.344l96-96C473.96,319.864,457.192,287.368,444.168,274.344z"></path>
      </g>
    </g>
    <g>
      <g>
        <path d="M262.512,0c-83.947,0-152,68.053-152,152s68.053,152,152,152c83.909-0.093,151.907-68.091,152-152
			C414.512,68.053,346.459,0,262.512,0z M262.512,288c-75.111,0-136-60.889-136-136s60.89-136,136-136
			c75.076,0.084,135.916,60.924,136,136C398.512,227.111,337.623,288,262.512,288z"></path>
      </g>
    </g>
    <g>
      <g>
        <path d="M262.512,40c-61.856,0-112,50.144-112,112s50.145,112,112,112c61.828-0.066,111.934-50.172,112-112
			C374.512,90.144,324.368,40,262.512,40z M270.512,247.666V224h-16v23.666c-46.637-3.848-83.817-41.028-87.666-87.666h23.666v-16
			h-23.666c3.849-46.637,41.029-83.817,87.666-87.666V80h16V56.343c46.612,3.893,83.764,41.045,87.657,87.657h-23.657v16h23.666
			C354.33,206.637,317.15,243.817,270.512,247.666z"></path>
      </g>
    </g>
    <g>
      <g>
        <path d="M284.18,162.33c1.494-3.129,2.333-6.631,2.333-10.33c0-10.449-6.68-19.334-16-22.629V96h-16v33.371
			c-9.32,3.295-16,12.18-16,22.629c-0.001,13.255,10.745,24,23.999,24c3.711,0,7.225-0.843,10.362-2.347l23.977,23.977
			l11.314-11.314L284.18,162.33z M262.512,160c-4.418,0-8-3.582-8-8c0-4.418,3.582-8,8-8c4.418,0,8,3.582,8,8
			C270.512,156.418,266.93,160,262.512,160z"></path>
      </g>
    </g>
    <g></g>
    <g></g>
    <g></g>
    <g></g>
    <g></g>
    <g></g>
    <g></g>
    <g></g>
    <g></g>
    <g></g>
    <g></g>
    <g></g>
    <g></g>
    <g></g>
    <g></g>
  </symbol>
  <symbol xmlns="http://www.w3.org/2000/svg" viewBox="0 0 16 11" id="tick">
    <defs></defs>
    <path id="Shape_10_copy_5" d="M2,4L6,8l8-8"></path>
  </symbol>
  <symbol xmlns="http://www.w3.org/2000/svg" viewBox="0 0 512 512" id="chevron">
    <path d="M233.4 406.6c12.5 12.5 32.8 12.5 45.3 0l192-192c12.5-12.5 12.5-32.8 0-45.3s-32.8-12.5-45.3 0L256 338.7 86.6 169.4c-12.5-12.5-32.8-12.5-45.3 0s-12.5 32.8 0 45.3l192 192z"></path>
  </symbol>
  <symbol xmlns="http://www.w3.org/2000/svg" version="1.1" xmlns:xlink="http://www.w3.org/1999/xlink" xmlnsSvgjs="http://svgjs.dev/svgjs" viewBox="0 0 1000 750" id="logo">
    <rect width="1000" height="750" fill="#c56e33"></rect>
    <g transform="matrix(0.5845845845845846,0,0,0.5845845845845846,207.58158741832204,82.87400583090377)"><svg viewBox="0 0 343 343" data-background-color="#c56e33" preserveAspectRatio="xMidYMid meet" height="999" width="1000" xmlns="http://www.w3.org/2000/svg" xmlns:xlink="http://www.w3.org/1999/xlink">
        <g id="tight-bounds" transform="matrix(1,0,0,1,0.0740000000000407,0.07400000000001228)"><svg viewBox="0 0 342.85155851775386 342.85155851775386" height="342.85155851775386" width="342.85155851775386">
            <g><svg></svg></g>
            <g><svg viewBox="0 0 342.85155851775386 342.85155851775386" height="342.85155851775386" width="342.85155851775386">
                <g>
                  <path d="M0 171.426c0-94.676 76.75-171.426 171.426-171.426 94.676 0 171.426 76.75 171.426 171.426 0 94.676-76.75 171.426-171.426 171.426-94.676 0-171.426-76.75-171.426-171.426zM171.426 340.232c93.229 0 168.806-75.577 168.806-168.806 0-93.229-75.577-168.806-168.806-168.806-93.229 0-168.806 75.577-168.806 168.806 0 93.229 75.577 168.806 168.806 168.806z" data-fill-palette-color="tertiary" fill="#ffffff" stroke="transparent"></path>
                  <ellipse rx="164.56874808852186" ry="164.56874808852186" cx="171.42577925887693" cy="171.42577925887693" fill="#ffffff" stroke="transparent" stroke-width="0" fill-opacity="1" data-fill-palette-color="tertiary"></ellipse>
                </g>
                <g transform="matrix(1,0,0,1,64.84655864529837,133.3959137823603)"><svg viewBox="0 0 213.1584412271571 76.05973095303324" height="76.05973095303324" width="213.1584412271571">
                    <g><svg viewBox="0 0 213.1584412271571 76.05973095303324" height="76.05973095303324" width="213.1584412271571">
                        <g><svg viewBox="0 0 213.1584412271571 76.05973095303324" height="76.05973095303324" width="213.1584412271571">
                            <g transform="matrix(1,0,0,1,0,47.00796509404624)"><svg viewBox="0 0 213.1584412271571 29.051765858986993" height="29.051765858986993" width="213.1584412271571">
                                <g id="textblocktransform"><svg viewBox="0 0 213.1584412271571 29.051765858986993" height="29.051765858986993" width="213.1584412271571" id="textblock">
                                    <g><svg viewBox="0 0 213.1584412271571 29.051765858986993" height="29.051765858986993" width="213.1584412271571">
                                        <g transform="matrix(1,0,0,1,0,0)"><svg width="213.1584412271571" viewBox="2.5 -36.04999923706055 399.8500061035156 54.50312423706055" height="29.051765858986993" data-palette-color="#c56e33">
                                            <path d="M22.75-35.6Q24-35.1 24-34.2L24-34.2Q24-33.3 22.75-31.9L22.75-31.9Q22.2-31.95 21.15-31.95L21.15-31.95Q18.85-31.95 16.75-31.33 14.65-30.7 12.4-29.4L12.4-29.4Q11.35-28.75 10.6-27.75L10.6-27.75Q10.05-27.15 10.05-26.35L10.05-26.35Q10.05-25 11.55-23.75L11.55-23.75Q13-22.25 16.3-18.3L16.3-18.3 17.45-17.1Q19.9-14.45 21.33-12.6 22.75-10.75 23.75-8.35L23.75-8.35Q24.15-7.3 24.15-6.45L24.15-6.45Q24.15-4.3 22.5-2.5L22.5-2.5Q20.6-0.4 18.1 0.58 15.6 1.55 12.45 1.8L12.45 1.8Q12.05 1.85 11.5 1.9 10.95 1.95 10.25 1.95L10.25 1.95Q9.8 1.95 8.9 1.85L8.9 1.85Q7.8 1.9 6.6 1.48 5.4 1.05 4.4 0.25L4.4 0.25Q2.5-1.35 2.5-3.3L2.5-3.3Q2.5-4.95 3.9-6.65L3.9-6.65Q4.6-6.55 4.73-6.23 4.85-5.9 4.78-5.5 4.7-5.1 4.7-4.85L4.7-4.85Q4.7-4.7 4.8-4.4L4.8-4.4Q6.75-3.5 9.45-3.5L9.45-3.5Q12.45-3.5 15.13-4.53 17.8-5.55 18.4-7.05L18.4-7.05Q18.75-8.05 16.7-10.58 14.65-13.1 12.1-15.5L12.1-15.5Q9.7-17.65 7.75-19.75L7.75-19.75Q6.65-20.95 6.03-22.53 5.4-24.1 5.4-25.8L5.4-25.8Q5.4-28.1 6.58-30.15 7.75-32.2 10.1-33.5L10.1-33.5Q14.6-36.05 19.3-36.05L19.3-36.05Q19.95-36.05 21.15-35.95L21.15-35.95Q22.25-35.85 22.75-35.6L22.75-35.6ZM35.4-5.45Q35.45-5.3 36.25-5.2 37.05-5.1 38.05-5.1L38.05-5.1Q40.3-5.1 41.5-5.45L41.5-5.45Q42.65-5.75 44.15-6.3L44.15-6.3Q46.5-7.05 47.4-7.25L47.4-7.25Q47.8-7.3 48.35-6.93 48.9-6.55 49.25-6.1L49.25-6.1Q49.3-6.05 49.3-5.85L49.3-5.85Q49.3-5.5 49.12-5.08 48.95-4.65 48.75-4.5L48.75-4.5Q43.15-0.9 36.65-0.9L36.65-0.9Q34.8-0.9 32.95-1.2L32.95-1.2Q31.6-1.45 30.15-3L30.15-3Q29.15-4.1 29.15-4.9L29.15-4.9Q29.15-5.95 30.65-7.35L30.65-7.35 32.8-9.3Q36.45-12.55 37.1-13.2L37.1-13.2Q37.35-13.45 37.57-13.95 37.8-14.45 37.95-14.75L37.95-14.75Q37.7-14.85 37.17-15.05 36.65-15.25 36.25-15.35L36.25-15.35 34.95-15.6Q33.05-15.9 31.8-16.43 30.55-16.95 29.7-18.35L29.7-18.35Q30.4-19 31-19.3 31.6-19.6 32.4-19.6L32.4-19.6Q32.95-19.6 33.55-19.45L33.55-19.45Q37.6-18.35 41.35-18.05L41.35-18.05Q42.35-18 42.97-17.5 43.6-17 44.25-16.1L44.25-16.1 44.95-15.3Q45.15-15.1 44.75-14.18 44.35-13.25 43.85-12.7L43.85-12.7Q41.75-10.6 37.15-6.5L37.15-6.5Q36.8-6.2 36.25-5.9 35.7-5.6 35.4-5.45L35.4-5.45ZM57.2-23.3Q57.1-23 56.47-22.65 55.85-22.3 55.45-22L55.45-22 54.05-22.75Q52-23.85 51.25-24.5L51.25-24.5Q50.85-24.8 50.85-25.25L50.85-25.25Q50.85-25.55 51.07-25.78 51.3-26 51.75-26L51.75-26Q53.7-26 56.5-25L56.5-25Q56.8-24.95 57.05-24.33 57.3-23.7 57.2-23.3L57.2-23.3ZM52.7-14Q52.85-14.65 52.9-14.95 52.95-15.25 52.95-15.6L52.95-15.6Q52.95-16.3 53.37-16.7 53.8-17.1 55-17.1L55-17.1Q56.4-17.1 57.47-16.23 58.55-15.35 58.8-13.95L58.8-13.95Q58.95-13.25 59-12.4 59.05-11.55 59.05-11.3L59.05-11.3 59.75-2.75Q59.9-1.4 59.37-0.68 58.85 0.05 57.4 0.05L57.4 0.05Q56.15 0.05 55.27-0.65 54.4-1.35 54.2-2.45L54.2-2.45 52.9-13.05 52.7-14ZM70.29-2.3Q71.29-3.5 71.74-4.2L71.74-4.2Q72.29-4.95 72.89-4.95L72.89-4.95Q73.49-4.95 73.79-4.2L73.79-4.2Q74.49-2.2 74.49-1.05L74.49-1.05Q74.49-0.55 74.44-0.3L74.44-0.3Q74.24 0.7 73.32 1.1 72.39 1.5 71.14 1.4L71.14 1.4Q70.69 1.4 69.62 1.4 68.54 1.4 67.77 1.1 66.99 0.8 66.39 0.1L66.39 0.1Q65.09-1.45 65.09-2.9L65.09-2.9Q65.09-14.6 64.99-20.5L64.99-20.5 64.94-29.3Q64.94-31.05 64.59-32.5L64.59-32.5Q64.54-32.75 64.54-33.1L64.54-33.1Q64.54-34.95 67.04-34.95L67.04-34.95Q68.69-34.95 69.82-33.88 70.94-32.8 70.84-31.05L70.84-31.05Q70.69-28.4 70.44-23.1L70.44-23.1 70.14-17.1Q69.74-8.6 69.59-4.35L69.59-4.35Q69.54-3.85 69.64-3.25 69.74-2.65 69.79-2.5L69.79-2.5 70.29-2.3ZM85.79-10.95Q85.99-10.55 86.24-9.65L86.24-9.65Q86.79-7.95 86.89-7.75L86.89-7.75Q87.94-9.65 88.84-11.5L88.84-11.5Q90.29-14.5 91.09-15.7L91.09-15.7Q92.54-17.9 94.54-19.6L94.54-19.6Q94.94-20 95.49-20L95.49-20Q95.99-20 96.32-19.6 96.64-19.2 96.74-18.6L96.74-18.6Q96.79-18.4 96.79-17.95L96.79-17.95Q96.79-16.85 96.39-15.75L96.39-15.75Q95.64-13.8 92.69-6.2L92.69-6.2 90.54-0.65Q90.09 0.6 89.12 1.28 88.14 1.95 87.04 1.95L87.04 1.95Q85.39 1.95 84.14 0.55L84.14 0.55Q83.39-0.35 82.59-2.55L82.59-2.55Q80.29-9.6 78.74-14.65L78.74-14.65Q78.59-15.05 78.32-15.68 78.04-16.3 78.04-16.7L78.04-16.7Q78.04-17.4 78.79-17.95L78.79-17.95Q79.54-18.5 80.39-18.5L80.39-18.5Q81.34-18.5 82.74-17.55L82.74-17.55Q83.74-16.8 84.19-15.85 84.64-14.9 85.04-13.35L85.04-13.35Q85.44-11.75 85.79-10.95L85.79-10.95ZM106.49-23.3Q106.39-23 105.76-22.65 105.14-22.3 104.74-22L104.74-22 103.34-22.75Q101.29-23.85 100.54-24.5L100.54-24.5Q100.14-24.8 100.14-25.25L100.14-25.25Q100.14-25.55 100.36-25.78 100.59-26 101.04-26L101.04-26Q102.99-26 105.79-25L105.79-25Q106.09-24.95 106.34-24.33 106.59-23.7 106.49-23.3L106.49-23.3ZM101.99-14Q102.14-14.65 102.19-14.95 102.24-15.25 102.24-15.6L102.24-15.6Q102.24-16.3 102.66-16.7 103.09-17.1 104.29-17.1L104.29-17.1Q105.69-17.1 106.76-16.23 107.84-15.35 108.09-13.95L108.09-13.95Q108.24-13.25 108.29-12.4 108.34-11.55 108.34-11.3L108.34-11.3 109.04-2.75Q109.19-1.4 108.66-0.68 108.14 0.05 106.69 0.05L106.69 0.05Q105.44 0.05 104.56-0.65 103.69-1.35 103.49-2.45L103.49-2.45 102.19-13.05 101.99-14ZM128.54-2.55Q128.09-2.75 127.64-2.75L127.64-2.75Q127.19-2.75 126.86-2.53 126.54-2.3 126.14-1.85L126.14-1.85Q125.54-1.25 124.89-0.85L124.89-0.85Q124.29-0.5 122.69-0.2L122.69-0.2Q121.99-0.1 121.54-0.1L121.54-0.1Q119.44-0.1 117.16-1.03 114.89-1.95 113.94-3.25L113.94-3.25Q112.94-4.65 112.99-6.25L112.99-6.25Q113.04-8.65 114.99-11.05L114.99-11.05Q116.89-13.35 118.46-14.3 120.04-15.25 122.79-15.5L122.79-15.5Q123.39-15.5 124.51-15.7 125.64-15.9 125.64-16.25L125.64-16.25Q125.64-16.95 125.01-17.53 124.39-18.1 122.49-18.1L122.49-18.1Q121.79-18.1 120.39-18L120.39-18Q118.99-17.9 118.44-17.9L118.44-17.9Q116.74-17.9 115.99-18.45L115.99-18.45Q115.79-18.55 115.79-19.4L115.79-19.4Q115.79-20.9 116.84-21.3L116.84-21.3Q118.99-22.1 121.29-22.15L121.29-22.15Q124.19-22.15 126.66-20.88 129.14-19.6 130.29-17.7L130.29-17.7Q131.44-15.8 131.79-12.45L131.79-12.45Q132.19-8.7 132.19-2.9L132.19-2.9Q132.19-1.3 131.74-1.05L131.74-1.05Q131.34-0.8 130.99-0.8L130.99-0.8Q130.54-0.8 130.16-1.07 129.79-1.35 129.34-1.85L129.34-1.85Q128.89-2.4 128.54-2.55L128.54-2.55ZM120.64-3.15Q122.99-3.85 125.24-5.4L125.24-5.4Q125.74-5.75 126.14-6.3 126.54-6.85 126.64-7L126.64-7Q126.74-7.15 126.81-7.88 126.89-8.6 126.84-9.05L126.84-9.05Q126.79-9.2 126.66-9.85 126.54-10.5 126.29-11L126.29-11Q126.04-11.4 125.49-11.75 124.94-12.1 124.49-12.05L124.49-12.05Q123.54-12 122.44-11.35 121.34-10.7 120.39-9.6L120.39-9.6Q119.44-8.45 118.91-7.28 118.39-6.1 118.39-5.1L118.39-5.1Q118.49-3.75 119.14-3.3L119.14-3.3Q119.49-3.05 119.99-3.05L119.99-3.05Q120.39-3.05 120.64-3.15L120.64-3.15ZM142.23 1.1Q138.03 1.1 136.88-2.5L136.88-2.5Q137.28-2.5 137.96-2.48 138.63-2.45 139.08-2.35L139.08-2.35Q139.78-2.25 140.08-2.25L140.08-2.25Q142.33-2.25 143.83-4.25L143.83-4.25Q144.88-5.7 144.88-7.2L144.88-7.2Q144.88-8.2 144.38-9.15L144.38-9.15Q143.28-11.1 141.68-13.45L141.68-13.45Q140.63-15 139.78-16.4L139.78-16.4Q138.78-18 138.78-19.95L138.78-19.95Q138.78-21.75 139.81-23.13 140.83-24.5 142.83-24.85L142.83-24.85 144.43-25.15Q147.03-25.65 148.33-25.65L148.33-25.65Q150.48-25.65 152.13-24.65L152.13-24.65Q152.48-24.4 152.86-23.78 153.23-23.15 153.43-22.8L153.43-22.8Q153.08-22.65 152.46-22.33 151.83-22 151.38-21.95L151.38-21.95Q150.68-21.85 149.28-21.85L149.28-21.85Q147.93-21.85 147.23-21.8L147.23-21.8Q145.63-21.65 144.71-20.73 143.78-19.8 143.78-18.5L143.78-18.5Q143.78-17.5 144.38-16.45L144.38-16.45Q145.73-14.2 148.13-11.3L148.13-11.3Q149.93-9.05 149.93-6.65L149.93-6.65Q149.93-5.35 149.33-3.9L149.33-3.9Q147.28 1.1 142.23 1.1L142.23 1.1ZM161.23-5.45Q161.28-5.3 162.08-5.2 162.88-5.1 163.88-5.1L163.88-5.1Q166.13-5.1 167.33-5.45L167.33-5.45Q168.48-5.75 169.98-6.3L169.98-6.3Q172.33-7.05 173.23-7.25L173.23-7.25Q173.63-7.3 174.18-6.93 174.73-6.55 175.08-6.1L175.08-6.1Q175.13-6.05 175.13-5.85L175.13-5.85Q175.13-5.5 174.96-5.08 174.78-4.65 174.58-4.5L174.58-4.5Q168.98-0.9 162.48-0.9L162.48-0.9Q160.63-0.9 158.78-1.2L158.78-1.2Q157.43-1.45 155.98-3L155.98-3Q154.98-4.1 154.98-4.9L154.98-4.9Q154.98-5.95 156.48-7.35L156.48-7.35 158.63-9.3Q162.28-12.55 162.93-13.2L162.93-13.2Q163.18-13.45 163.41-13.95 163.63-14.45 163.78-14.75L163.78-14.75Q163.53-14.85 163.01-15.05 162.48-15.25 162.08-15.35L162.08-15.35 160.78-15.6Q158.88-15.9 157.63-16.43 156.38-16.95 155.53-18.35L155.53-18.35Q156.23-19 156.83-19.3 157.43-19.6 158.23-19.6L158.23-19.6Q158.78-19.6 159.38-19.45L159.38-19.45Q163.43-18.35 167.18-18.05L167.18-18.05Q168.18-18 168.81-17.5 169.43-17 170.08-16.1L170.08-16.1 170.78-15.3Q170.98-15.1 170.58-14.18 170.18-13.25 169.68-12.7L169.68-12.7Q167.58-10.6 162.98-6.5L162.98-6.5Q162.63-6.2 162.08-5.9 161.53-5.6 161.23-5.45L161.23-5.45ZM187.43-7.8Q186.93-7.5 185.98-7.5L185.98-7.5Q185.63-7.5 185.13-7.55 184.63-7.6 184.28-7.55L184.28-7.55Q184.68-5.9 186.18-4.88 187.68-3.85 189.53-3.85L189.53-3.85Q191.13-3.85 192.38-4.55L192.38-4.55Q194.23-5.5 195.58-6.8L195.58-6.8Q196.53-7.75 197.38-7.75L197.38-7.75Q197.93-7.75 198.33-7.2L198.33-7.2Q198.73-6.55 198.73-5.6L198.73-5.6Q198.73-4.6 198.33-4.05L198.33-4.05Q197.03-2.05 194.95-1.3 192.88-0.55 190.13-0.55L190.13-0.55Q187.28-0.55 184.63-1.8 181.98-3.05 180.1-5.23 178.23-7.4 177.63-10.05L177.63-10.05Q177.23-11.6 177.23-13.1L177.23-13.1Q177.23-15.45 178.55-16.9 179.88-18.35 182.83-19.65L182.83-19.65Q185.53-20.8 187.83-20.8L187.83-20.8Q189.48-20.8 191.03-20.3L191.03-20.3Q195.83-18.8 195.83-16.2L195.83-16.2Q195.83-14.55 193.88-12.2L193.88-12.2Q192.93-11.1 191.63-10.25 190.33-9.4 189.1-8.72 187.88-8.05 187.43-7.8L187.43-7.8ZM189.53-17.05Q189.48-17.3 189.15-17.48 188.83-17.65 188.78-17.7L188.78-17.7Q187.43-17.8 186.03-16.93 184.63-16.05 183.7-14.7 182.78-13.35 182.78-12.1L182.78-12.1 182.83-11.7Q182.88-11.5 183.35-11.2 183.83-10.9 183.93-11L183.93-11Q187.48-13.65 189.28-15.25L189.28-15.25Q189.58-15.55 189.58-16.35L189.58-16.35Q189.58-16.85 189.53-17.05L189.53-17.05ZM213.78-4Q212.28-2.4 210.53-2.4L210.53-2.4Q209.08-2.4 207.48-3.35L207.48-3.35 207.33 1.2Q207.08 6.2 207.08 9.9L207.08 9.9Q207.08 10.6 207.18 12.1L207.18 12.1Q207.28 13.6 207.28 14.3L207.28 14.3Q207.28 15.05 207.23 15.4L207.23 15.4Q207.18 15.85 206.63 16.38 206.08 16.9 205.53 17.05L205.53 17.05Q205.13 17.15 204.98 17.15L204.98 17.15Q203.83 17.15 202.75 16.15 201.68 15.15 201.73 14.05L201.73 14.05Q201.83 10.3 202.13 3.2L202.13 3.2 202.48-7.7Q202.58-10.7 202.13-12.75L202.13-12.75Q202.03-13.35 202.03-13.55L202.03-13.55Q202.03-14.35 202.5-14.8 202.98-15.25 203.78-15.35L203.78-15.35Q205.03-15.45 205.78-16.03 206.53-16.6 207.53-17.85L207.53-17.85Q209.33-20.1 211.48-20.1L211.48-20.1Q213.88-20.1 216.93-17.15L216.93-17.15Q218.33-15.8 218.33-13.5L218.33-13.5Q218.33-12.65 218.18-11.8L218.18-11.8Q217.83-9.7 216.7-7.9 215.58-6.1 213.78-4L213.78-4ZM209.13-12.35Q208.03-9.35 208.03-7L208.03-7Q208.03-6.45 208.08-6.2L208.08-6.2 208.68-5.9Q209.68-6.2 210.78-7.65 211.88-9.1 212.6-10.93 213.33-12.75 213.33-14.15L213.33-14.15Q213.33-14.75 213.08-15.35L213.08-15.35Q212.73-16 212.03-16L212.03-16Q211.13-16 210.73-15.35L210.73-15.35Q210.58-15.15 210.03-14.25 209.48-13.35 209.13-12.35L209.13-12.35ZM227.57 1.1Q223.37 1.1 222.22-2.5L222.22-2.5Q222.62-2.5 223.3-2.48 223.97-2.45 224.42-2.35L224.42-2.35Q225.12-2.25 225.42-2.25L225.42-2.25Q227.67-2.25 229.17-4.25L229.17-4.25Q230.22-5.7 230.22-7.2L230.22-7.2Q230.22-8.2 229.72-9.15L229.72-9.15Q228.62-11.1 227.02-13.45L227.02-13.45Q225.97-15 225.12-16.4L225.12-16.4Q224.12-18 224.12-19.95L224.12-19.95Q224.12-21.75 225.15-23.13 226.17-24.5 228.17-24.85L228.17-24.85 229.77-25.15Q232.37-25.65 233.67-25.65L233.67-25.65Q235.82-25.65 237.47-24.65L237.47-24.65Q237.82-24.4 238.2-23.78 238.57-23.15 238.77-22.8L238.77-22.8Q238.42-22.65 237.8-22.33 237.17-22 236.72-21.95L236.72-21.95Q236.02-21.85 234.62-21.85L234.62-21.85Q233.27-21.85 232.57-21.8L232.57-21.8Q230.97-21.65 230.05-20.73 229.12-19.8 229.12-18.5L229.12-18.5Q229.12-17.5 229.72-16.45L229.72-16.45Q231.07-14.2 233.47-11.3L233.47-11.3Q235.27-9.05 235.27-6.65L235.27-6.65Q235.27-5.35 234.67-3.9L234.67-3.9Q232.62 1.1 227.57 1.1L227.57 1.1ZM249.42-7.8Q248.92-7.5 247.97-7.5L247.97-7.5Q247.62-7.5 247.12-7.55 246.62-7.6 246.27-7.55L246.27-7.55Q246.67-5.9 248.17-4.88 249.67-3.85 251.52-3.85L251.52-3.85Q253.12-3.85 254.37-4.55L254.37-4.55Q256.22-5.5 257.57-6.8L257.57-6.8Q258.52-7.75 259.37-7.75L259.37-7.75Q259.92-7.75 260.32-7.2L260.32-7.2Q260.72-6.55 260.72-5.6L260.72-5.6Q260.72-4.6 260.32-4.05L260.32-4.05Q259.02-2.05 256.95-1.3 254.87-0.55 252.12-0.55L252.12-0.55Q249.27-0.55 246.62-1.8 243.97-3.05 242.1-5.23 240.22-7.4 239.62-10.05L239.62-10.05Q239.22-11.6 239.22-13.1L239.22-13.1Q239.22-15.45 240.55-16.9 241.87-18.35 244.82-19.65L244.82-19.65Q247.52-20.8 249.82-20.8L249.82-20.8Q251.47-20.8 253.02-20.3L253.02-20.3Q257.82-18.8 257.82-16.2L257.82-16.2Q257.82-14.55 255.87-12.2L255.87-12.2Q254.92-11.1 253.62-10.25 252.32-9.4 251.1-8.72 249.87-8.05 249.42-7.8L249.42-7.8ZM251.52-17.05Q251.47-17.3 251.15-17.48 250.82-17.65 250.77-17.7L250.77-17.7Q249.42-17.8 248.02-16.93 246.62-16.05 245.7-14.7 244.77-13.35 244.77-12.1L244.77-12.1 244.82-11.7Q244.87-11.5 245.35-11.2 245.82-10.9 245.92-11L245.92-11Q249.47-13.65 251.27-15.25L251.27-15.25Q251.57-15.55 251.57-16.35L251.57-16.35Q251.57-16.85 251.52-17.05L251.52-17.05ZM280.02-12.6Q279.87-9 279.52-7.15 279.17-5.3 278.14-3.63 277.12-1.95 274.82 0.25L274.82 0.25 276.57 1.2Q278.17 2.1 278.92 2.45L278.92 2.45Q281.17 3.5 282.32 5.13 283.47 6.75 283.47 8.7L283.47 8.7Q283.47 11.1 281.87 13.45L281.87 13.45Q280.17 15.95 277.62 17.18 275.07 18.4 272.17 18.45L272.17 18.45Q270.02 18.5 267.77 17.75L267.77 17.75Q266.72 17.4 265.67 16.23 264.62 15.05 263.99 13.6 263.37 12.15 263.42 11.05L263.42 11.05Q263.47 10.8 263.62 10.53 263.77 10.25 263.97 10.2L263.97 10.2Q264.02 10.15 264.17 10.15L264.17 10.15Q264.32 10.15 264.59 10.28 264.87 10.4 264.97 10.45L264.97 10.45Q265.22 10.55 265.32 10.9L265.32 10.9Q266.02 12.45 266.87 13.35 267.72 14.25 269.12 14.15L269.12 14.15Q274.27 13.8 276.17 11.3L276.17 11.3Q276.82 10.5 277.24 9.47 277.67 8.45 277.67 7.55L277.67 7.55Q277.67 6.25 277.04 5.65 276.42 5.05 275.12 4.8L275.12 4.8Q273.72 4.55 272.44 4.1 271.17 3.65 269.37 2.75L269.37 2.75Q268.47 2.3 268.12 1.95 267.77 1.6 267.77 1.1L267.77 1.1Q267.77 0.6 268.37-1.45L268.37-1.45Q268.47-1.75 267.44-2.45 266.42-3.15 265.67-3.6L265.67-3.6Q262.97-5.2 262.97-8.8L262.97-8.8Q262.97-9.8 263.12-10.7L263.12-10.7Q264.02-16.2 268.47-18.5L268.47-18.5Q269.52-19.05 270.67-19.05L270.67-19.05Q271.52-19.05 272.42-18.8 273.32-18.55 273.47-18.5L273.47-18.5 274.52-18.2Q275.27-18 275.97-18L275.97-18Q276.92-18 277.69-18.35 278.47-18.7 279.27-19.45L279.27-19.45Q280.42-20.4 281.72-20.4L281.72-20.4Q282.67-20.4 283.42-19.88 284.17-19.35 284.52-18.35L284.52-18.35Q284.62-17.95 284.62-17.7L284.62-17.7Q284.62-17.25 284.47-17L284.47-17Q284.32-16.8 283.62-15.7L283.62-15.7Q283.27-15.05 282.97-14.6 282.67-14.15 282.02-13.6L282.02-13.6Q281.57-13.35 281.07-13.23 280.57-13.1 280.29-13 280.02-12.9 280.02-12.6L280.02-12.6ZM269.52-13.35Q267.97-11.55 267.97-9.7L267.97-9.7Q267.97-8.4 268.79-7.23 269.62-6.05 271.32-5.2L271.32-5.2Q273.22-5.95 274.27-7.8 275.32-9.65 275.32-11.85L275.32-11.85Q275.32-13.2 274.92-14.3 274.52-15.4 273.32-16L273.32-16Q271.02-15.1 269.52-13.35L269.52-13.35ZM291.97 1.1Q287.77 1.1 286.62-2.5L286.62-2.5Q287.02-2.5 287.69-2.48 288.37-2.45 288.82-2.35L288.82-2.35Q289.52-2.25 289.82-2.25L289.82-2.25Q292.07-2.25 293.57-4.25L293.57-4.25Q294.62-5.7 294.62-7.2L294.62-7.2Q294.62-8.2 294.12-9.15L294.12-9.15Q293.02-11.1 291.42-13.45L291.42-13.45Q290.37-15 289.52-16.4L289.52-16.4Q288.52-18 288.52-19.95L288.52-19.95Q288.52-21.75 289.54-23.13 290.57-24.5 292.57-24.85L292.57-24.85 294.17-25.15Q296.77-25.65 298.07-25.65L298.07-25.65Q300.22-25.65 301.87-24.65L301.87-24.65Q302.22-24.4 302.59-23.78 302.97-23.15 303.17-22.8L303.17-22.8Q302.82-22.65 302.19-22.33 301.57-22 301.12-21.95L301.12-21.95Q300.42-21.85 299.02-21.85L299.02-21.85Q297.67-21.85 296.97-21.8L296.97-21.8Q295.37-21.65 294.44-20.73 293.52-19.8 293.52-18.5L293.52-18.5Q293.52-17.5 294.12-16.45L294.12-16.45Q295.47-14.2 297.87-11.3L297.87-11.3Q299.67-9.05 299.67-6.65L299.67-6.65Q299.67-5.35 299.07-3.9L299.07-3.9Q297.02 1.1 291.97 1.1L291.97 1.1ZM304.11-18.65Q303.76-19.05 303.64-19.5 303.51-19.95 303.41-20.75L303.41-20.75Q303.86-21.8 305.06-21.8L305.06-21.8Q305.66-21.7 305.91-21.7L305.91-21.7Q306.91-21.7 307.16-22.3 307.41-22.9 307.41-23.7 307.41-24.5 307.41-24.95L307.41-24.95 307.56-27.95Q307.61-28.95 307.69-30.43 307.76-31.9 307.86-33.85L307.86-33.85Q307.91-34.9 308.39-35.4 308.86-35.9 309.71-35.9L309.71-35.9Q310.31-35.9 310.66-35.8L310.66-35.8Q312.71-35.35 313.41-34.5 314.11-33.65 314.36-31.95L314.36-31.95Q314.41-31.6 314.26-30.5L314.26-30.5 313.36-22.7Q313.31-22.4 313.21-21.98 313.11-21.55 313.11-21.35L313.11-21.35Q313.11-20.9 313.61-20.75 314.11-20.6 315.46-20.65L315.46-20.65Q317.76-21.15 318.96-21.3L318.96-21.3Q319.21-21.35 319.76-21.35L319.76-21.35Q320.36-21.35 320.56-21.2L320.56-21.2Q320.76-21.1 320.89-20.63 321.01-20.15 321.01-19.55L321.01-19.55Q321.01-19 320.89-18.55 320.76-18.1 320.56-18.05L320.56-18.05Q319.21-17.65 317.36-17.4L317.36-17.4Q315.16-17 314.11-16.7L314.11-16.7Q313.56-16.55 313.01-15.95 312.46-15.35 312.41-14.85L312.41-14.85Q312.31-12.4 312.26-9.85L312.26-9.85Q312.21-7.9 312.41-5.95L312.41-5.95Q312.56-4.3 313.06-3.58 313.56-2.85 314.56-2.85L314.56-2.85Q315.36-2.85 316.86-3.4L316.86-3.4Q317.66-3.75 318.26-3.75L318.26-3.75Q319.21-3.75 319.61-2.7L319.61-2.7Q319.76-2.35 319.76-2L319.76-2Q319.76-1.35 319.29-0.95 318.81-0.55 318.01-0.25L318.01-0.25Q316.51 0.3 314.96 0.35L314.96 0.35Q312.86 0.35 311.01-0.68 309.16-1.7 308.09-3.55 307.01-5.4 307.16-7.8L307.16-7.8Q307.21-8.75 307.21-10.8L307.21-10.8Q307.21-14.05 306.96-17.4L306.96-17.4Q306.91-17.7 306.61-17.82 306.31-17.95 305.61-18.1L305.61-18.1Q304.46-18.3 304.11-18.65L304.11-18.65ZM329.21-21Q330.46-20.65 330.99-20.15 331.51-19.65 331.51-18.8L331.51-18.8Q331.51-18.4 331.36-17.75L331.36-17.75Q330.81-15.5 330.76-13.25L330.76-13.25Q330.71-10.7 331.56-8.55L331.56-8.55Q331.86-7.8 332.14-7.48 332.41-7.15 332.81-7.15L332.81-7.15Q333.31-7.15 334.11-8.05L334.11-8.05Q335.96-10.25 336.86-12.45 337.76-14.65 337.96-17L337.96-17Q338.11-18.55 338.46-18.95L338.46-18.95Q338.66-19.15 339.11-19.2 339.56-19.25 340.41-19.25L340.41-19.25Q341.76-19.15 342.29-19 342.81-18.85 343.01-18.5 343.21-18.15 343.21-17.35L343.21-17.35 343.16-15Q343.16-14.25 343.11-12.8L343.11-12.8Q342.96-8.3 342.86-6.1L342.86-6.1Q342.81-4.35 341.81-1.7L341.81-1.7Q341.71-1.55 341.26-1.28 340.81-1 340.46-0.95L340.46-0.95Q340.36-0.95 340.04-1.28 339.71-1.6 339.56-1.85L339.56-1.85Q339.21-2.65 338.76-4L338.76-4 338.36-4.95 338.26-5.25 338.11-5.1 337.31-4.6Q336.71-4.1 336.01-3.8L336.01-3.8Q334.86-3.1 333.26-3.1L333.26-3.1Q331.26-3.1 329.46-4.23 327.66-5.35 326.61-7.3L326.61-7.3Q324.91-10.3 324.91-14.25L324.91-14.25Q324.91-16.25 325.46-19.3L325.46-19.3Q325.56-20.05 326.41-20.6L326.41-20.6Q327.16-21.15 328.16-21.15L328.16-21.15Q328.66-21.15 329.21-21L329.21-21ZM367.66-5.85Q367.76-5 368.41-3.65L368.41-3.65Q368.51-3.4 368.63-3.1 368.76-2.8 368.91-2.4L368.91-2.4Q367.21-1.45 366.21-1.45L366.21-1.45Q365.46-1.45 364.81-1.93 364.16-2.4 363.36-3.45L363.36-3.45Q362.76-4.15 362.36-4.15L362.36-4.15Q361.96-4.15 361.51-3.5L361.51-3.5Q360.51-2 359.03-1.25 357.56-0.5 355.91-0.5L355.91-0.5Q354.06-0.5 352.33-1.38 350.61-2.25 349.66-3.75L349.66-3.75Q348.66-5.3 348.66-8.35L348.66-8.35Q348.66-10.55 349.26-12.8 349.86-15.05 350.96-16.5L350.96-16.5Q352.16-18.15 353.81-19.13 355.46-20.1 357.46-20.1L357.46-20.1Q358.11-20.1 358.46-20.05L358.46-20.05Q358.61-20 358.91-20L358.91-20Q360.06-20 360.06-21.1L360.06-21.1 360.01-21.5Q359.31-27.25 358.76-29.95L358.76-29.95Q358.71-30.2 358.61-30.75 358.51-31.3 358.51-31.65L358.51-31.65Q358.51-32.35 358.81-32.88 359.11-33.4 359.86-33.75L359.86-33.75Q360.16-33.9 360.56-33.9L360.56-33.9Q361.61-33.9 362.76-33.23 363.91-32.55 364.11-31.7L364.11-31.7Q364.86-28.6 365.51-23.65L365.51-23.65 366.41-16.05Q367.21-9.25 367.66-5.85L367.66-5.85ZM354.31-12.1Q353.46-9.65 353.46-7.6L353.46-7.6Q353.46-4.75 355.46-3.4L355.46-3.4Q356.26-3.85 356.73-4.42 357.21-5 357.86-6.1L357.86-6.1 358.41-7.05Q359.56-8.7 359.93-10.75 360.31-12.8 360.41-15.95L360.41-15.95Q360.46-16.4 360.23-16.98 360.01-17.55 359.76-17.6L359.76-17.6Q359.36-17.7 358.41-17.38 357.46-17.05 357.21-16.7L357.21-16.7Q356.06-15.35 355.38-14.35 354.71-13.35 354.31-12.1L354.31-12.1ZM378.61-23.3Q378.51-23 377.88-22.65 377.26-22.3 376.86-22L376.86-22 375.46-22.75Q373.41-23.85 372.66-24.5L372.66-24.5Q372.26-24.8 372.26-25.25L372.26-25.25Q372.26-25.55 372.48-25.78 372.71-26 373.16-26L373.16-26Q375.11-26 377.91-25L377.91-25Q378.21-24.95 378.46-24.33 378.71-23.7 378.61-23.3L378.61-23.3ZM374.11-14Q374.26-14.65 374.31-14.95 374.36-15.25 374.36-15.6L374.36-15.6Q374.36-16.3 374.78-16.7 375.21-17.1 376.41-17.1L376.41-17.1Q377.81-17.1 378.88-16.23 379.96-15.35 380.21-13.95L380.21-13.95Q380.36-13.25 380.41-12.4 380.46-11.55 380.46-11.3L380.46-11.3 381.16-2.75Q381.31-1.4 380.78-0.68 380.26 0.05 378.81 0.05L378.81 0.05Q377.56 0.05 376.68-0.65 375.81-1.35 375.61-2.45L375.61-2.45 374.31-13.05 374.11-14ZM396.35-3.35Q394.8-2.4 392.8-2.4L392.8-2.4Q390.6-2.4 388.58-3.53 386.55-4.65 385.35-6.75 384.15-8.85 384.35-11.55L384.35-11.55 384.6-12.75Q384.9-14.55 385.1-15.4L385.1-15.4Q385.55-17.25 386.9-18 388.25-18.75 390.5-19.2L390.5-19.2Q391.95-19.5 393.35-19.5L393.35-19.5Q397.75-19.5 400.75-16.55L400.75-16.55Q402.35-14.95 402.35-12.65L402.35-12.65Q402.35-10.4 400.7-7.8L400.7-7.8Q398.8-4.85 396.35-3.35L396.35-3.35ZM392.15-16.95Q391.35-15 390.45-12.1L390.45-12.1 389.95-10.6 390.3-10.45Q390.3-10.1 390.33-9.38 390.35-8.65 390.5-8.15L390.5-8.15Q391.05-6.6 391.75-6.25L391.75-6.25Q392.05-6.1 392.63-6.4 393.2-6.7 393.65-7.1L393.65-7.1Q394.35-7.7 395.9-9.6L395.9-9.6Q397.05-10.9 397.05-12.7L397.05-12.7Q397.05-14.25 396.18-15.5 395.3-16.75 393.75-17.2L393.75-17.2Q393.6-17.25 393.2-17.25L393.2-17.25Q392.25-17.25 392.15-16.95L392.15-16.95Z" opacity="1" transform="matrix(1,0,0,1,0,0)" fill="#c56e33" data-fill-palette-color="quaternary" id="text-0"></path>
                                          </svg></g>
                                      </svg></g>
                                  </svg></g>
                              </svg></g>
                            <g transform="matrix(1,0,0,1,91.04571338061585,0)"><svg viewBox="0 0 31.067014465925403 40.14954041712003" height="40.14954041712003" width="31.067014465925403">
                                <g><svg xmlns="http://www.w3.org/2000/svg" xmlns:xlink="http://www.w3.org/1999/xlink" version="1.1" x="0" y="0" viewBox="12.982999801635742 1 75.68599700927734 97.81300354003906" enable-background="new 0 0 100 100" xml:space="preserve" height="40.14954041712003" width="31.067014465925403" data-fill-palette-color="quaternary" id="icon-0">
                                    <g fill="#c56e33" data-fill-palette-color="quaternary">
                                      <polygon fill-rule="evenodd" clip-rule="evenodd" points="12.983,10.59 30.001,98.813 24.129,39.764 53.15,37.872 53.096,27.989    64.549,1 53.622,18.977  " fill="#c56e33" data-fill-palette-color="quaternary"></polygon>
                                      <polygon fill-rule="evenodd" clip-rule="evenodd" points="59.389,54.548 64.549,1.007 55.809,40.723 36.197,41.768 37.767,62.23    30.001,98.813 42.058,58.914  " fill="#c56e33" data-fill-palette-color="quaternary"></polygon>
                                      <polygon fill-rule="evenodd" clip-rule="evenodd" points="62.8,67.182 63.349,56.729 47.37,60.484 47.338,72.281 30.001,98.813    51.681,71.197  " fill="#c56e33" data-fill-palette-color="quaternary"></polygon>
                                      <polygon fill-rule="evenodd" clip-rule="evenodd" points="65.711,62.394 80.552,57.663 82.061,45.131 66.162,47.226  " fill="#c56e33" data-fill-palette-color="quaternary"></polygon>
                                      <polygon fill-rule="evenodd" clip-rule="evenodd" points="72.07,44.502 83.058,43.085 84.639,32.807 76.56,32.434 64.549,1    72.979,31.967  " fill="#c56e33" data-fill-palette-color="quaternary"></polygon>
                                      <polygon fill-rule="evenodd" clip-rule="evenodd" points="87.413,31.294 88.669,21.788 79.125,19.094 64.549,1 79.032,23.437    78.61,30.437  " fill="#c56e33" data-fill-palette-color="quaternary"></polygon>
                                    </g>
                                  </svg></g>
                              </svg></g>
                            <g></g>
                          </svg></g>
                      </svg></g>
                  </svg></g>
              </svg></g>
            <defs></defs>
          </svg>
          <rect width="342.85155851775386" height="342.85155851775386" fill="none" stroke="none" visibility="hidden"></rect>
        </g>
      </svg></g>
  </symbol>
  <symbol fill="#000000" version="1.1" id="cologne-perfume-svgrepo-com" xmlns="http://www.w3.org/2000/svg" xmlns:xlink="http://www.w3.org/1999/xlink" xml:space="preserve" viewBox="0 0 512 512">
    <g>
      <g>
        <polygon points="322.757,129.637 322.757,91.956 355.937,91.956 355.937,0 156.063,0 156.063,91.956 189.243,91.956 
			189.243,129.637 98.715,129.637 98.715,315.447 413.285,315.447 413.285,129.637 		"></polygon>
      </g>
    </g>
    <g>
      <g>
        <rect x="98.716" y="348.839" width="314.568" height="163.161"></rect>
      </g>
    </g>
  </symbol>
</svg>